<?xml version="1.0" encoding="UTF-8" standalone="no"?>
<!-- Created with Inkscape (http://www.inkscape.org/) -->

<svg
   version="1.1"
   id="svg2"
   width="1000"
   height="1000"
   viewBox="0 0 1000 1000"
   sodipodi:docname="DanceFam_Brush_notext.svg"
   inkscape:version="1.2 (dc2aedaf03, 2022-05-15)"
   inkscape:export-filename="DanceFam_Logo.png"
   inkscape:export-xdpi="400"
   inkscape:export-ydpi="400"
   xml:space="preserve"
   xmlns:inkscape="http://www.inkscape.org/namespaces/inkscape"
   xmlns:sodipodi="http://sodipodi.sourceforge.net/DTD/sodipodi-0.dtd"
   xmlns="http://www.w3.org/2000/svg"
   xmlns:svg="http://www.w3.org/2000/svg"><defs
     id="defs6"><clipPath
       clipPathUnits="userSpaceOnUse"
       id="clipPath18"><path
         d="M 0,474 H 375.324 V 0 H 0 Z"
         id="path16" /></clipPath></defs><sodipodi:namedview
     id="namedview4"
     pagecolor="#ffffff"
     bordercolor="#000000"
     borderopacity="0.25"
     inkscape:showpageshadow="2"
     inkscape:pageopacity="0.0"
     inkscape:pagecheckerboard="0"
     inkscape:deskcolor="#d1d1d1"
     showgrid="false"
     inkscape:zoom="0.5"
     inkscape:cx="508"
     inkscape:cy="385"
     inkscape:window-width="2400"
     inkscape:window-height="1261"
     inkscape:window-x="-9"
     inkscape:window-y="-9"
     inkscape:window-maximized="1"
     inkscape:current-layer="g4796"><inkscape:page
       x="0"
       y="0"
       id="page8"
       width="1000"
       height="1000" /></sodipodi:namedview><g
     id="g10"
     inkscape:groupmode="layer"
     inkscape:label="Page 1"
     transform="matrix(1.3333333,0,0,-1.3333333,0,632)"><g
       id="g4796"
       transform="matrix(0.80128207,0,0,0.80128207,84.070953,-5.1523364)"><g
         id="g4745"
         transform="matrix(3.2934514,0,0,3.2934514,-155.71613,-915.78324)"><g
           id="g4602"
           transform="matrix(1.0298286,0,0,1.0298286,-3.3058077,-19.91097)"><g
             id="g12"
             transform="matrix(0.71284853,0,0,0.71284855,12.591434,168.06973)"><g
               id="g14"
               clip-path="url(#clipPath18)"><g
                 id="g20"
                 transform="translate(250.85051,87.736922)"><path
                   d="m 0,0 c 0.128,0.021 0.256,0.043 0.385,0.086 z m -82.508,227.339 c -7.911,-0.641 -11.246,2.373 -15.137,4.17 -2.651,2.416 -5.73,5.516 -12.657,6.2 -2.673,2.48 -4.811,2.224 -6.864,3.528 3.144,-0.941 5.26,-1.433 7.548,-2.609 2.074,0.471 4.639,1.882 7.034,2.908 5.666,2.715 3.314,8.018 8.552,11.011 1.732,1.005 2.63,3.613 3.293,7.783 0.32,2.052 1.475,3.484 2.394,4.639 -1.475,-3.1 -2.522,-5.302 -2.736,-9.728 0.043,-2.95 -4.555,-4.34 -4.747,-6.821 -0.042,-0.406 0.214,-0.598 0.535,-0.748 0.898,-0.449 1.39,-0.577 1.646,-0.919 0.107,-0.556 -0.085,-1.197 -0.578,-1.924 -0.192,-0.856 0.108,-1.625 0.92,-2.288 -1.54,-1.197 -1.668,-2.267 -0.192,-2.993 0.556,-0.278 1.219,-0.492 1.881,-0.792 -0.705,0.129 -1.176,0.279 -1.453,0.428 -0.578,-2.844 0.149,-4.383 2.202,-4.64 1.774,-0.598 4.126,-0.94 7.034,-1.09 1.753,-0.406 2.438,-1.71 2.052,-3.87 z M -107.202,210 c 2.266,-10.755 11.566,-17.19 22.129,-20.932 -3.079,-0.235 -5.474,0.641 -7.633,-1.133 -2.245,-1.796 -4.148,-2.908 -5.731,-3.314 -5.109,-0.812 -9.129,-1.133 -12.122,-0.962 -2.245,1.561 -5.645,3.357 -10.22,5.388 2.48,-0.642 4.854,-1.475 7.12,-2.502 1.603,3.186 2.865,5.58 3.848,7.163 -5.131,6.329 -1.902,13.213 2.609,16.292 m 32.178,-33.183 c -0.322,0.706 -0.899,1.262 -1.818,1.24 -4.084,-0.085 -8.553,2.609 -10.327,6.286 0.856,-0.128 1.519,-0.15 1.988,-0.085 1.113,-0.877 2.288,-1.07 3.529,-0.599 0.983,0.727 0.919,1.325 -0.171,1.818 -0.749,0.94 -1.369,1.966 -1.839,3.121 5.323,-1.753 10.904,-2.844 16.014,-3.464 -3.08,-3.827 -5.623,-6.286 -7.376,-8.317 m 10.048,9.001 c 2.309,5.645 -1.218,11.289 -6.478,14.39 0.812,-0.257 1.689,-0.257 2.502,0 -0.963,0.32 -1.754,1.004 -2.202,1.924 -0.471,0.898 -0.535,1.945 -0.214,2.908 0.598,3.741 -0.022,7.568 -1.776,10.903 -1.175,-0.427 -2.501,-0.064 -3.27,0.92 1.133,-0.214 2.266,0.278 2.886,1.24 2.138,5.751 2.48,11.995 0.983,17.939 -0.662,-1.048 -1.475,-2.011 -2.415,-2.844 1.753,2.993 1.133,6.777 -1.454,9.065 0.149,-0.919 -0.192,-1.86 -0.856,-2.502 0.15,1.176 -0.235,2.352 -1.047,3.208 -0.813,0.876 -1.967,1.325 -3.143,1.239 -1.411,0.471 -2.224,1.968 -1.86,3.4 0.684,1.133 0.641,2.587 -0.128,3.678 -1.219,-0.321 -1.989,-1.518 -1.775,-2.78 -0.663,0.791 -0.77,1.903 -0.278,2.822 0.492,0.898 1.518,1.39 2.522,1.24 1.668,-0.384 3.421,-0.107 4.875,0.77 0.877,0.406 1.904,0.235 2.609,-0.427 0.684,-0.663 0.898,-1.69 0.535,-2.588 0.727,1.155 0.577,2.652 -0.343,3.656 -0.94,0.984 -2.416,1.241 -3.613,0.621 -6.286,-4.041 -9.835,8.53 -7.932,14.175 1.09,2.416 3.443,2.052 5.196,2.523 0,-0.107 2.971,0.833 3.121,0.876 2.608,0.577 6.521,0.941 9.13,0.193 0.598,3.72 3.955,10.797 -0.128,15.223 -0.043,2.865 -1.625,5.494 -4.213,6.991 0.064,-0.064 0.064,-0.257 -0.064,-0.406 -0.129,-0.171 -0.363,-0.236 -0.555,-0.129 -4.534,3.293 -10.157,4.704 -15.694,3.977 2.052,-0.106 4.041,-0.812 5.687,-2.074 -3.506,1.219 -7.29,1.369 -10.861,0.428 -7.654,-3.357 -11.118,-8.039 -10.413,-14.047 0.129,-0.385 0.321,-0.556 0.599,-0.513 -0.107,-1.881 0.257,-3.998 1.112,-6.393 -1.005,-2.095 -1.048,-4.597 -0.171,-7.505 0.919,-1.218 1.774,-4.318 2.544,-9.278 0.984,-3.122 2.886,-4.384 5.688,-3.742 -0.065,-2.608 -2.651,-4.704 -7.762,-6.307 -73.997,-2.716 -14.795,-17.746 -9.835,-29.954 -3.057,3.784 -7.397,6.264 -11.759,8.701 -5.195,-8.53 2.095,-15.543 -2.758,-23.711 -2.651,-8.189 -1.646,-14.046 -1.283,-18.494 -1.86,-7.098 -1.326,-11.887 1.646,-14.41 4.169,-1.775 8.681,-2.93 13.534,-3.442 1.775,0.427 3.613,0.812 5.538,1.176 2.779,0.534 5.708,1.004 8.787,1.411 2.053,-2.374 5.474,-3.785 10.263,-4.234 2.844,-0.363 5.495,-0.128 7.932,0.684 2.502,0.364 3.785,1.005 4.554,1.861 0.748,-2.096 2.224,-4.725 4.533,-8.36 5.858,-7.248 9.428,-16.143 10.156,-25.507 -0.022,-1.39 -0.043,-2.608 -0.065,-3.699 -0.256,-7.291 -1.261,-14.56 -2.971,-21.658 1.988,4.489 3.676,9.107 5.046,13.812 21.124,-23.99 35.406,-35.599 43.551,-38.678 -4.49,-0.599 -8.103,-0.15 -11.438,0.812 C -14.496,70.941 -7.44,59.096 -1.24,43.382 4.725,42.142 10.946,42.89 16.441,45.541 14.495,43.745 12.999,42.825 11.951,42.783 14.11,40.153 15.672,36.54 16.612,31.9 14.495,29.42 14.004,26.234 15.115,22.407 13.234,20.953 11.737,19.2 10.626,17.169 l 0.214,3.998 c 0.063,2.031 -1.069,3.464 -3.421,4.319 -3.507,0.385 -7.12,2.309 -10.861,5.773 -11.931,23.754 -27.111,45.583 -37.566,53.451 -21.787,2.202 -30.852,4.255 -50.03,16.976 8.273,-8.317 29.142,-30.275 36.496,-33.76 4.404,-1.368 8.616,-5.559 12.593,-12.593 C -22.343,34.658 -11.524,20.397 -9.515,12.551 -3.079,6.863 0.106,2.673 0,0 c -5.089,-1.133 -7.142,-2.993 -6.158,-5.623 1.988,-1.411 5.046,-2.309 9.151,-2.672 7.162,-0.941 10.434,2.907 9.835,11.566 -0.684,4.298 -0.171,7.441 1.539,9.408 l 5.089,-8.018 c 1.668,-1.432 2.373,-1.325 2.159,0.343 -3.933,5.195 -5.729,9.364 -5.344,12.507 0.469,0.791 0.812,1.475 1.026,2.074 l 1.219,-1.048 c 1.645,1.048 2.757,-0.277 3.356,-3.976 0.385,-3.058 2.972,-5.217 7.761,-6.457 5.88,-1.112 8.808,-1.07 8.808,0.17 1.176,4.683 0.536,8.489 -1.902,11.482 -2.01,4.447 -4.041,9.407 -6.072,14.924 -0.748,3.549 -1.07,6.307 -0.962,8.274 -1.326,0.748 -3.164,1.111 -5.517,1.111 C 16.911,56.659 10.155,68.717 3.72,80.22 c -6.671,10.712 -12.764,18.751 -18.281,24.16 -7.911,22.535 -16.826,38.185 -26.747,46.909 5.025,5.281 4.619,9.685 -1.218,13.213 -4.661,2.587 -6.414,6.158 -5.26,10.69 1.432,7.804 2.096,12.85 1.988,15.159 -1.068,4.255 -3.635,7.12 -7.268,7.569 -3.358,-5.281 -6.565,-8.873 -11.91,-12.102 m 23.925,35.877 c 4.489,-2.758 10.562,-4.511 18.238,-5.281 5.152,-0.086 9.77,0 13.833,0.278 9.236,2.373 21.594,6.906 29.74,11.652 -9.878,-7.825 -13.726,-6.2 -24.245,-11.781 -3.164,-1.731 -8.532,-1.304 -16.357,-0.919 -3.207,-0.064 -7.846,0.022 -13.876,0.257 -6.862,3.185 -7.055,-0.727 -7.333,5.794 m 72.458,17.831 c 1.027,2.609 2.074,2.651 2.973,4.512 1.731,-1.497 0,-2.352 -0.321,-4.341 4.533,2.331 8.146,-4.169 6.735,-5.516 1.625,-2.651 0.32,-5.687 -4.383,-9.044 -1.497,-0.513 -2.78,-0.364 -3.848,0.428 -0.813,0.727 -1.839,0.94 -3.08,0.641 1.71,2.01 4.897,0.257 2.994,3.592 -1.71,3.335 1.646,2.031 1.731,2.031 -1.218,1.967 0.235,2.972 1.711,2.202 -0.748,0.77 -0.406,2.053 0.62,2.374 -0.685,0.085 -1.582,-0.535 -1.326,-1.818 -1.068,0.3 -2.395,-0.62 -1.604,-2.287 -1.688,0.363 -2.394,-0.3 -1.731,-2.245 1.069,-1.925 0.406,-2.181 -0.685,-2.288 -0.833,-0.107 -1.923,-0.705 -2.265,-1.069 -0.984,-1.112 -1.262,-1.325 -2.567,-2.437 -5.301,-4.576 -21.358,-15.223 -27.815,-16.976 -3.613,-2.075 -6.949,-3.079 -10.006,-3.015 -7.526,-2.822 -16.934,-4.02 -28.223,-3.635 -1.945,0.043 -3.87,0.235 -5.772,0.556 -0.856,2.758 -1.497,5.58 -1.882,8.467 2.395,-2.181 5.26,-3.806 8.36,-4.747 -5.73,7.868 -9.707,16.869 -11.695,26.384 1.518,-3.101 3.485,-5.965 5.837,-8.488 -3.25,8.68 -5.303,17.767 -6.137,26.982 0.493,-1.347 3.657,-0.599 5.538,-1.326 5.367,-2.095 10.925,-6.392 15.543,-11.63 3.764,-2.331 8.81,-4.17 15.181,-5.538 10.027,-0.214 16.826,-0.663 20.375,-1.369 5.966,0.898 10.52,1.433 13.62,1.689 4.853,0.385 6.82,2.523 6.884,4.298 0.129,3.699 0.92,4.233 2.182,7.462 1.816,-0.706 0.662,-2.48 1.025,-4.383 0.043,-0.449 1.646,-0.471 2.031,0.534 M -160.825,133.137 c 0,-6.115 4.255,-12.679 12.764,-19.67 3.4,-3.891 5.773,-7.141 7.163,-9.707 -0.513,-1.112 -1.026,-2.181 -1.56,-3.228 -2.353,-4.576 -3.293,-9.237 -2.844,-13.983 -1.454,-28.736 -2.16,-43.36 -2.074,-43.809 -0.257,-6.435 -2.694,-12.101 -7.334,-16.998 -2.651,-2.116 -3.228,-4.746 -1.71,-7.846 3.506,-0.364 8.531,-0.193 15.094,0.513 1.476,0 2.309,1.69 2.502,5.089 0.898,1.068 1.924,1.945 3.1,2.587 l 0.171,-1.988 c 4.661,1.303 6.329,3.762 5.003,7.419 0.043,3.014 -0.47,5.409 -1.56,7.162 -0.834,2.822 -2.673,2.052 -1.989,7.334 0.021,0.277 1.946,0.448 2.031,0.683 1.24,9.921 3.891,20.077 7.997,30.511 0.641,1.218 1.218,2.458 1.796,3.655 15.03,-17.852 0.641,-32.584 3.356,-32.904 5.003,-0.599 9.108,-3.036 13.17,5.089 -1.688,11.695 4.341,17.425 5.431,16.291 3.1,-3.25 3.806,-3.1 3.485,-2.138 -0.62,1.711 -3.57,6.243 -3.164,9.237 0.064,2.886 -2.202,4.062 -4.575,3.42 -3.421,0.877 -6.778,9.066 -11.204,18.88 0.107,0.641 0.193,1.283 0.278,1.903 6.029,9.621 8.317,12.101 9.921,12.251 -9.365,5.772 -16.014,6.628 -28.672,7.119 -0.684,-2.523 -1.753,-5.024 -3.207,-7.44 0.834,2.437 1.604,4.96 2.288,7.59 -1.24,-0.021 -2.544,-0.043 -5.088,0.086 9.215,1.111 17.297,1.154 24.288,0.085 -10.305,8.616 -15.031,18.687 -14.154,30.189 -19.927,-6.692 -30.168,-12.486 -30.703,-17.382"
                   style="display:inline;fill:#5a4ae3;fill-opacity:1;fill-rule:evenodd;stroke:none"
                   id="path22"
                   inkscape:label="path22" /></g></g></g></g></g><path
         style="fill:#5a4ae3;fill-opacity:1;stroke-width:1.01501"
         d="m 315.48291,-333.34492 c 2.46835,0.87092 8.42983,1.52782 14.5916,1.60791 5.72984,0.0745 13.61529,0.831 17.5231,1.68119 3.90781,0.85019 12.3578,1.88272 18.77776,2.29455 12.6351,0.81049 15.81841,1.35605 39.58558,6.78418 29.67649,6.77775 68.36525,19.54966 78.24504,25.8302 2.56096,1.62805 5.31626,2.96009 6.12263,2.96009 5.39064,0 68.33478,33.58943 77.96614,41.60571 2.5499,2.12228 7.54863,5.31222 11.10834,7.08878 3.55971,1.77656 8.58403,5.19567 11.16516,7.59801 2.58113,2.40237 8.18876,6.86817 12.46146,9.92404 4.27273,3.05587 9.28382,7.28187 11.13579,9.39115 1.85196,2.10927 6.34937,6.21594 9.9942,9.12594 8.82272,7.04395 36.88614,34.23779 41.91957,40.62067 2.20115,2.7913 6.95697,8.22225 10.56862,12.06877 6.10169,6.49869 13.77297,16.16485 26.20484,33.01929 2.79129,3.78428 7.7294,10.03216 10.97354,13.8842 6.40999,7.61118 12.43588,16.466704 18.23405,26.796487 2.03686,3.628678 6.6735,10.708405 10.3037,15.732727 3.63008,5.024323 9.21169,14.159455 12.40345,20.300294 3.19177,6.140838 8.92649,16.399419 12.74386,22.796833 3.81737,6.397423 7.84305,14.6615722 8.9459,18.3647816 1.10285,3.7032104 4.49686,11.8098981 7.54212,18.0148654 5.37036,10.942436 12.80198,30.55322 14.29826,37.730522 0.40417,1.939104 1.74169,5.136399 2.97217,7.105099 3.15501,5.047724 4.60693,9.763541 4.60693,14.962801 0,2.465553 0.52963,5.472458 1.17692,6.682006 0.6474,1.20956 2.64576,7.916681 4.44091,14.904742 1.79514,6.988052 4.4614,16.492912 5.92504,21.121882 1.46353,4.62899 2.95102,11.70871 3.30552,15.73273 0.35439,4.02402 1.26931,8.85664 2.03317,10.73915 0.77059,1.89937 1.39934,7.09461 1.41257,11.67267 0.0141,4.92166 0.83326,11.2934 2.03002,15.79388 1.1034,4.14919 2.0039,9.63026 2.00119,12.18017 0,2.54993 0.76364,6.78099 1.70318,9.40236 1.40942,3.9325 1.50268,5.44157 0.5331,8.62763 -0.65488,2.15231 -1.54822,16.10872 -2.01831,31.53125 -0.50578,16.59807 -1.26454,28.09109 -1.89622,28.72274 -0.72731,0.72733 -1.89404,0.66978 -3.77247,-0.18607 -3.81346,-1.73753 -5.24522,-0.13308 -3.87939,4.34724 0.60185,1.97435 1.09461,17.81712 1.17865,37.90303 0.12211,29.13767 -0.10085,35.09829 -1.43208,38.28421 -0.8671,2.07537 -1.58737,5.50091 -1.60049,7.61232 -0.013,2.11139 -0.92664,7.23369 -2.03003,11.38286 -1.1034,4.14919 -2.00617,8.51282 -2.00617,9.697 0,1.18416 -1.63444,6.92451 -3.63204,12.75632 -1.99772,5.83182 -4.76526,14.02898 -6.15028,18.21591 -1.38501,4.18694 -5.45993,13.20788 -9.05553,20.04654 -3.5956,6.83867 -9.58278,18.25758 -13.30472,25.37537 -10.36876,19.82912 -17.47462,29.57872 -32.80894,45.01536 -14.42916,14.52549 -31.109,27.25644 -50.76016,38.74278 -15.44623,9.02856 -49.24059,24.9584 -61.9159,29.18563 -6.41996,2.14108 -14.86996,5.1151 -18.77777,6.60894 -7.4417,2.84475 -21.78714,6.81111 -32.99275,9.12215 -3.63128,0.74892 -7.886,1.84972 -9.45492,2.44624 -1.56895,0.5965 -4.07893,1.09045 -5.57781,1.09766 -1.49888,0.008 -5.62065,0.92071 -9.15953,2.03003 -3.53889,1.1093 -7.77528,2.01693 -9.41426,2.01693 -1.63899,0 -5.57901,0.91351 -8.75571,2.03003 -3.17668,1.11651 -7.16191,2.05008 -8.8561,2.07457 -1.69408,0.0245 -4.9072,0.71738 -7.14024,1.53971 -2.23303,0.82234 -7.02897,1.75658 -10.65765,2.07609 -3.62869,0.31952 -8.653,1.18913 -11.16516,1.93246 -2.51216,0.74334 -8.90676,1.65711 -14.21021,2.0306 -5.30346,0.37348 -12.38318,1.38249 -15.73272,2.24222 -8.68358,2.22886 -86.12486,1.39947 -95.41138,-1.02184 -3.34956,-0.87335 -10.2009,-2.0387 -15.22522,-2.58968 -42.62932,-4.67485 -102.26153,-28.54321 -147.93839,-59.21375 -8.03304,-5.39395 -8.88137,-6.2699 -8.88137,-9.17076 0,-1.89595 0.90234,-4.16767 2.207,-5.5564 2.17014,-2.31004 2.5602,-2.34922 23.38567,-2.34922 19.3868,0 21.52591,0.17709 25.2806,2.09258 2.25601,1.15091 7.43834,2.94589 11.51618,3.98885 4.07796,1.04296 10.69366,3.54769 14.70167,5.56608 4.008,2.0184 11.48257,4.76938 16.61002,6.11329 5.12756,1.34392 12.52014,3.53303 16.42794,4.86469 3.90781,1.33167 13.27132,3.88075 20.80781,5.66463 7.53648,1.78388 17.12837,4.10387 21.3153,5.15556 7.66294,1.92479 16.72507,3.28071 34.5105,5.16364 5.30345,0.56146 13.33226,1.69595 17.84181,2.52107 10.88159,1.99104 37.00911,2.02401 43.13204,0.0544 2.56607,-0.82544 10.40272,-1.63823 18.2642,-1.8943 7.89543,-0.25719 14.74211,-0.96901 16.04927,-1.66855 1.2537,-0.67102 6.24798,-1.6074 11.09815,-2.08088 10.20631,-0.99632 21.58944,-3.37033 44.34421,-9.24826 8.93213,-2.3073 18.75238,-4.55006 21.82281,-4.98388 5.23644,-0.73988 18.68625,-4.31188 35.01801,-9.30012 3.9078,-1.19356 10.3024,-3.68745 14.2102,-5.54194 3.90781,-1.85449 10.98754,-4.99536 15.73273,-6.97972 12.12227,-5.06928 31.6742,-15.90506 41.91197,-23.22765 12.33308,-8.82141 28.76883,-23.36785 32.53079,-28.79135 1.76326,-2.542 5.17093,-6.94942 7.5727,-9.79424 4.13011,-4.89204 14.77736,-24.54851 19.2958,-35.62285 5.72128,-14.0226 11.31264,-28.90304 12.38578,-32.96236 0.66041,-2.49807 2.48982,-7.09557 4.06526,-10.21665 1.99848,-3.95886 3.0663,-7.95637 3.53152,-13.2208 0.36675,-4.15035 1.31626,-9.26819 2.10995,-11.37295 2.08718,-5.53505 2.11602,-72.61439 0.0325,-76.66347 -0.88825,-1.72658 -1.68746,-8.33062 -2.1594,-17.84571 -0.46684,-9.41083 -1.27213,-16.10676 -2.1363,-17.76275 -0.76278,-1.46186 -1.38968,-3.83111 -1.39304,-5.265 0,-1.43388 -0.74478,-5.08794 -1.64723,-8.12012 -0.90256,-3.03217 -2.0116,-7.79684 -2.46467,-10.58813 -0.45296,-2.7913 -1.81835,-8.27237 -3.0342,-12.18018 -1.21595,-3.9078 -2.65053,-8.93212 -3.18797,-11.16516 -0.53753,-2.23303 -1.70221,-6.34384 -2.58829,-9.13513 -0.88596,-2.79129 -1.93915,-6.67373 -2.34028,-8.62762 -0.40123,-1.95391 -1.95336,-7.66336 -3.4492,-12.68769 -1.49585,-5.02432 -3.35053,-11.87567 -4.12155,-15.22522 -2.05139,-8.91217 -5.06217,-16.99925 -7.98771,-21.45583 -1.51222,-2.30371 -2.86373,-6.22094 -3.2783,-9.50211 -0.46435,-3.6752 -2.56356,-9.30488 -6.14398,-16.477073 -2.99126,-5.991938 -5.43857,-12.083696 -5.43857,-13.537183 0,-1.453488 -1.88168,-7.969882 -4.18152,-14.480865 -2.29983,-6.510983 -5.02508,-14.57869 -6.05603,-17.92824 -3.80338,-12.356555 -5.674,-16.548524 -9.2477,-20.723645 -4.59348,-5.366372 -9.70228,-19.247002 -10.86488,-29.5195792 -0.47389,-4.1869354 -2.0964,-10.5815276 -3.60558,-14.2102048 -1.50919,-3.628678 -3.35942,-8.653 -4.11168,-11.165161 -3.32905,-11.118574 -5.51719,-15.59366 -9.7167,-19.872697 -4.14779,-4.226258 -4.4164,-4.855607 -4.8274,-11.310755 -0.41674,-6.543963 -0.66767,-7.109438 -5.88491,-13.259147 -5.25791,-6.197742 -5.44952,-6.635872 -5.44952,-12.457672 v -6.034018 l -4.97564,-3.574598 c -2.73652,-1.966032 -5.24869,-4.286412 -5.58258,-5.156407 -0.33378,-0.869985 -0.60695,-4.756916 -0.60695,-8.637625 0,-8.58915 -3.45387,-16.57235 -7.90149,-18.26332 -5.10121,-1.93948 -6.49219,-3.98086 -6.13163,-8.99817 0.24172,-3.36352 -0.57029,-6.90656 -3.03051,-13.22234 -3.83537,-9.84626 -4.75593,-11.30246 -8.40044,-13.28736 -1.44455,-0.78669 -5.12387,-4.39926 -8.1764,-8.02795 -3.05263,-3.62868 -7.03786,-7.51111 -8.85622,-8.62761 -4.17598,-2.56413 -8.08856,-5.58542 -24.01279,-18.54288 -7.04503,-5.73251 -16.19773,-12.70927 -20.33922,-15.50391 -4.14139,-2.79465 -9.98901,-7.08408 -12.99447,-9.5321 -3.00547,-2.44799 -6.91924,-5.20315 -8.69713,-6.12255 -1.77791,-0.9194 -4.91816,-3.16032 -6.97823,-4.97982 -2.06018,-1.81948 -6.02947,-4.15205 -8.82076,-5.18346 -2.79129,-1.03141 -6.70365,-2.89511 -8.6941,-4.14154 -6.47495,-4.05457 -20.3197,-10.69047 -38.22452,-18.32128 -9.65153,-4.11333 -20.36916,-8.90278 -23.81684,-10.6432 -3.4478,-1.74041 -10.4103,-4.21698 -15.47225,-5.5035 -5.06206,-1.28651 -13.31447,-3.48601 -18.3388,-4.88781 -16.23677,-4.53004 -21.20286,-5.68181 -27.40539,-6.35599 -3.34956,-0.3641 -8.58403,-1.29066 -11.63223,-2.05904 -3.04807,-0.76839 -7.21734,-1.39707 -9.26493,-1.39707 -2.04749,0 -5.36256,-0.68512 -7.36666,-1.52252 -2.11765,-0.88476 -6.76915,-1.52252 -11.10498,-1.52252 -4.10355,0 -9.71346,-0.5975 -12.46647,-1.32782 -3.39889,-0.9016 -10.21835,-1.23314 -21.24579,-1.03288 -38.20727,0.69382 -51.21724,1.90169 -67.49848,6.26664 -6.41996,1.72118 -16.7705,4.48261 -23.00125,6.13658 -6.23084,1.65393 -12.62544,3.67716 -14.2102,4.49605 -1.58488,0.81886 -4.8173,2.00964 -7.18325,2.64613 -5.81016,1.56309 -42.53438,19.37911 -57.61428,27.95043 -21.11081,11.99923 -39.259674,25.0031 -54.889654,39.32898 -3.306182,3.03031 -9.453799,8.03472 -13.66136,11.12086 -7.729174,5.66915 -23.2846,21.61553 -32.010039,32.81438 -6.875423,8.8245 -17.9329005,25.46816 -25.545185,38.45067 -7.036351,12.00018 -21.567869,40.674044 -21.594003,42.609606 -0.01084,0.635755 -1.839172,5.943723 -4.067975,11.795485 -2.228912,5.851763 -5.442039,15.672031 -7.140346,21.822816 -1.698415,6.150786 -3.941532,14.152167 -4.984741,17.780844 -4.273581,14.864502 -5.065748,18.069777 -6.120018,24.7611097 -0.606406,3.84909814 -1.561779,7.8564876 -2.123181,8.9053318 -2.008991,3.7539101 -4.735543,79.2972285 -3.07107,85.0902725 0.561403,1.953903 1.478712,8.805252 2.03838,15.225215 1.376125,15.78433 3.738854,31.03012 5.643307,36.41439 0.864064,2.44279 1.570996,6.91083 1.570996,9.929 0,3.01815 0.649349,7.04168 1.443034,8.94114 0.793577,1.89946 1.95759,6.84873 2.586661,10.99835 1.696679,11.1933 15.120248,48.31131 28.1537514,77.8492 2.5864438,5.86171 6.23561717,14.93504 8.1092735,20.16295 1.8735478,5.2279 5.8574803,14.81979 8.8531831,21.31531 2.995594,6.49551 6.193433,14.03256 7.106187,16.749 1.901418,5.65875 9.615204,20.31362 17.702462,33.63157 3.051009,5.02432 8.608105,14.8943 12.349128,21.93327 3.741024,7.03898 8.805155,15.40532 11.253575,18.59189 2.44843,3.18655 5.783002,7.70442 7.41015,10.03968 7.585976,10.88733 13.903879,19.19469 21.048314,27.67623 4.271596,5.07103 9.237272,12.15075 11.034845,15.73271 1.797585,3.58196 4.754065,8.56807 6.569975,11.08023 1.8159,2.51216 4.29698,6.53854 5.5135,8.94751 1.21651,2.40898 3.6033,5.83464 5.30398,7.61261 1.70068,1.77797 4.83001,6.2016 6.95406,9.83026 2.12406,3.62868 6.18924,9.78511 9.0337,13.68097 2.84446,3.89585 5.17175,7.67842 5.17175,8.40572 0,2.22052 -2.77911,2.5551 -7.59443,0.91437 -2.52217,-0.85939 -4.58576,-1.23337 -4.58576,-0.83111 0,0.40229 2.74054,3.44337 6.09009,6.75797 3.34956,3.3146 6.0901,6.55756 6.0901,7.20658 0,1.77277 -8.29095,3.55148 -11.82705,2.53733 -4.48255,-1.28556 -9.50096,-4.01902 -14.05584,-7.65598 -2.23306,-1.78307 -6.34387,-4.78982 -9.13516,-6.68169 C 95.016597,491.05696 61.581081,458.61605 50.810138,445.8368 36.408208,428.74966 12.497998,397.46055 8.0671768,389.90308 5.9396583,386.2744 2.2164198,380.24349 -0.20692776,376.50104 -14.35055,354.65823 -26.8721,331.93929 -40.802309,302.84504 c -4.471811,-9.33953 -10.336883,-21.54853 -13.033503,-27.13111 -2.69673,-5.58258 -6.594994,-14.26097 -8.662977,-19.28528 -2.067875,-5.02432 -5.963103,-14.15946 -8.655819,-20.30029 -2.692826,-6.14084 -5.57152,-13.67733 -6.397304,-16.74775 -0.825675,-3.07041 -3.189163,-10.37852 -5.25205,-16.24023 -3.698514,-10.50892 -5.975356,-18.67632 -11.601097,-41.6156 -1.574466,-6.41997 -3.350958,-12.912 -3.94793,-14.42672 -0.596863,-1.51473 -1.358996,-6.9958 -1.693651,-12.18018 -0.33465,-5.18437 -1.24599,-12.39504 -2.02515,-16.02372 -2.23856,-10.42374 -3.50939,-33.687622 -2.49513,-45.67566 0.4959,-5.86171 0.92154,-19.605996 0.94583,-30.542871 0.0325,-14.649462 0.44407,-21.197149 1.56286,-24.867858 0.83511,-2.740448 1.792,-8.8650667 2.126217,-13.6102602 0.334109,-4.74519343 1.250554,-10.4546508 2.036431,-12.687683 0.785878,-2.2330318 1.874633,-7.0289768 2.419444,-10.6576548 1.065765,-7.09754 2.609,-13.902898 4.258399,-18.777771 0.566608,-1.674774 1.602769,-5.557205 2.302543,-8.627624 1.228428,-5.389616 5.552868,-19.349122 9.904743,-31.972961 6.160467,-17.869898 22.086111,-48.526107 35.848127,-69.006057 24.159734,-35.95339 28.152884,-41.22835 37.94539,-50.12527 5.30334314,-4.81829 14.0032984,-12.90295 19.333427,-17.96595 5.330019,-5.06297 11.746408,-10.7563 14.25857,-12.65184 2.51216,-1.89553 7.605019,-6.22349 11.317412,-9.61769 3.712395,-3.3942 8.736718,-7.50727 11.165162,-9.14016 2.428444,-1.63289 7.802633,-5.64834 11.942709,-8.9232 23.57144,-18.64536 71.598436,-45.24483 104.631706,-57.9497 13.00505,-5.00184 35.78179,-11.4469 47.08868,-13.32455 5.08451,-0.84436 11.30006,-2.02611 13.81222,-2.62612 2.51216,-0.60001 10.73378,-1.51082 18.27027,-2.02402 7.53648,-0.51319 15.52972,-1.33136 17.76275,-1.81814 2.23304,-0.48678 13.70867,-0.93758 25.50149,-1.00178 16.38272,-0.0892 22.42607,0.23068 25.61502,1.35577 z"
         id="path12980"
         sodipodi:nodetypes="sssssssssssssssssssssssssssssssssccsssssssssssssssssssscsssssssssssssssssssssssssssssssssssssssssssscsssssssssssssssssssssscsssssssssssssssssssssssssssssssssssscsssscssssssssssssssssssssssssssssssssssssssssscssssssssssssssssssssssss" /></g></g></svg>
