<?xml version="1.0" encoding="UTF-8" standalone="no"?>
<!-- Created with Inkscape (http://www.inkscape.org/) -->

<svg
   width="200mm"
   height="43.013779mm"
   viewBox="0 0 200 43.013779"
   version="1.1"
   id="svg14452"
   xml:space="preserve"
   inkscape:version="1.2 (dc2aedaf03, 2022-05-15)"
   sodipodi:docname="dancfam_text.svg"
   xmlns:inkscape="http://www.inkscape.org/namespaces/inkscape"
   xmlns:sodipodi="http://sodipodi.sourceforge.net/DTD/sodipodi-0.dtd"
   xmlns="http://www.w3.org/2000/svg"
   xmlns:svg="http://www.w3.org/2000/svg"><sodipodi:namedview
     id="namedview14454"
     pagecolor="#ffffff"
     bordercolor="#000000"
     borderopacity="0.25"
     inkscape:showpageshadow="2"
     inkscape:pageopacity="0.0"
     inkscape:pagecheckerboard="0"
     inkscape:deskcolor="#d1d1d1"
     inkscape:document-units="mm"
     showgrid="false"
     inkscape:lockguides="true"
     inkscape:zoom="0.64693624"
     inkscape:cx="132.93427"
     inkscape:cy="280.55315"
     inkscape:window-width="2400"
     inkscape:window-height="1261"
     inkscape:window-x="-9"
     inkscape:window-y="-9"
     inkscape:window-maximized="1"
     inkscape:current-layer="layer1" /><defs
     id="defs14449" /><g
     inkscape:label="Layer 1"
     inkscape:groupmode="layer"
     id="layer1"
     transform="translate(0,-4.0897895)"><path
       style="fill:#5a4ae3;fill-opacity:1;stroke-width:0.267777"
       d="m 124.3953,46.324373 c 2.40595,-0.764032 3.23154,-1.582547 3.54188,-3.511537 0.11848,-0.736393 0.21722,-5.074389 0.21944,-9.639989 l 0.004,-8.301109 1.07112,-0.216027 c 2.99574,-0.604197 3.85818,-0.830294 5.08777,-1.333851 1.70349,-0.697633 2.32003,-1.226612 2.22094,-1.90547 -0.10717,-0.734239 -0.89548,-0.904134 -4.36317,-0.940388 -1.62005,-0.0169 -3.09639,-0.126558 -3.28073,-0.243605 -0.25677,-0.163035 -0.30354,-1.367967 -0.19999,-5.150619 0.18133,-6.6227991 0.0693,-6.2620863 2.103,-6.7729198 0.91951,-0.2309752 2.93115,-0.5427441 4.47032,-0.6928141 1.53917,-0.1500701 3.03951,-0.3196632 3.33405,-0.3768656 0.29457,-0.057182 1.01757,-0.1875065 1.60668,-0.2895539 0.58911,-0.1020574 1.53013,-0.3052713 2.09114,-0.4515866 0.9411,-0.2454378 1.01364,-0.3322634 0.93723,-1.1217103 l -0.0828,-0.8556769 -9.77387,-0.1567498 c -5.37564,-0.086229 -9.95464,-0.2004208 -10.17556,-0.2537974 -0.22092,-0.053336 -1.14989,0.00202 -2.06441,0.1231591 -1.22881,0.1627513 -1.85934,0.4036853 -2.41605,0.923253 -1.41011,1.3159675 -1.60276,2.7333142 -1.35126,9.9413443 0.0129,0.368192 -0.0486,1.271943 -0.13639,2.008337 -0.0879,0.736384 -0.24442,3.20663 -0.34791,5.489439 -0.18454,4.070758 -0.20711,4.189151 -1.17377,6.158877 -1.10289,2.247317 -3.82674,6.802573 -4.42595,7.401781 -0.21454,0.214549 -0.54339,0.596252 -0.73077,0.848238 -0.72485,0.974758 -2.14853,1.925529 -2.88329,1.925529 -0.56992,0 -0.89562,-0.218466 -1.29746,-0.870281 -1.09087,-1.769477 -1.0369,-2.067786 0.79005,-4.36681 1.59288,-2.00448 2.7225,-4.310173 3.51208,-7.16864 0.67922,-2.458921 -0.79137,-5.192397 -3.13985,-5.836197 -2.57745,-0.706568 -6.55799,1.484306 -7.86516,4.328948 -0.23976,0.521763 -0.711,1.305016 -1.047191,1.740552 -0.336191,0.435536 -1.268613,1.684614 -2.072052,2.775731 -0.803434,1.091115 -2.094856,2.449488 -2.869851,3.018617 -0.774984,0.569118 -1.696303,1.278257 -2.047392,1.575858 -1.677156,1.421657 -3.622977,1.885419 -4.596307,1.095446 -0.641531,-0.52068 -0.655984,-0.617031 -0.635531,-4.237172 0.0333,-5.88494 1.233565,-9.461593 3.175256,-9.461593 1.173002,0 1.489913,0.424879 1.489913,1.997477 0,1.082847 0.111986,1.424744 0.557855,1.703187 0.46535,0.290615 0.659739,0.281618 1.172373,-0.05425 1.232077,-0.807291 0.866335,-3.766965 -0.661278,-5.351323 -0.856142,-0.887923 -3.180397,-1.60621 -4.094754,-1.265426 -0.324054,0.120772 -1.137922,0.300101 -1.808603,0.398504 -0.907931,0.13322 -1.637209,0.516977 -2.854966,1.50231 -1.900023,1.537378 -3.084382,3.424753 -3.709762,5.91183 -0.769893,3.061761 -5.569231,11.492153 -6.542369,11.492153 -0.352808,0 -0.588176,-1.478993 -0.413483,-2.598263 0.453278,-2.904162 1.007711,-5.952393 1.250123,-6.873086 0.273785,-1.039873 0.03107,-2.80511 -0.621666,-4.521261 -0.462791,-1.216764 -1.955202,-2.341824 -3.106455,-2.341824 -2.078038,0 -4.029121,1.545273 -7.136973,5.652536 l -1.946984,2.573082 -0.269657,-2.223775 c -0.231795,-1.911532 -0.377999,-2.329225 -1.04123,-2.974756 -2.187129,-2.128742 -4.367032,-2.893616 -5.374773,-1.885874 -0.257562,0.257562 -0.697085,1.695089 -1.043518,3.41297 -0.483912,2.399645 -0.911472,3.596623 -2.232793,6.250782 -1.814727,3.645263 -2.892514,5.131826 -3.455337,4.76585 -0.560547,-0.364508 -0.830789,-3.45303 -0.840272,-9.603444 l -0.0091,-5.680966 -0.775996,-0.883801 c -0.452913,-0.515843 -1.361582,-1.094395 -2.182494,-1.389586 -1.380983,-0.496593 -1.413278,-0.496512 -1.779689,0.004 -0.205248,0.280486 -0.558846,1.148358 -0.785773,1.928605 l -0.412582,1.418613 -1.134057,-1.217787 c -0.62373,-0.669779 -1.306383,-1.226997 -1.517006,-1.23827 -0.210622,-0.01123 -0.60609,-0.06265 -0.878832,-0.114193 -0.549819,-0.103899 -3.400038,0.459846 -4.482236,0.886556 -1.065855,0.420252 -3.223442,2.396394 -4.210383,3.856289 -1.098495,1.624932 -1.51307,2.77746 -1.931004,5.368215 -0.618478,3.833911 0.794,7.446049 3.524308,9.012686 1.18789,0.681612 3.463343,0.747335 4.912398,0.141874 1.340348,-0.560032 3.517742,-2.637007 4.419629,-4.21582 l 0.734299,-1.285423 0.174329,1.01765 c 0.09584,0.559707 0.624378,1.9214 1.17444,3.025974 1.180056,2.369718 2.033476,2.947004 4.347316,2.940739 1.865007,-0.0051 3.20404,-0.733043 4.670249,-2.539067 l 1.086966,-1.338891 0.02905,2.198303 c 0.03735,2.824977 0.338639,3.294256 2.607351,4.060587 2.048192,0.691841 2.783999,0.581182 3.93006,-0.59103 0.902647,-0.923244 1.431425,-2.475642 1.884994,-5.533973 0.163815,-1.104576 0.530651,-2.410685 0.815185,-2.902462 0.694109,-1.19965 4.562999,-5.934205 4.849193,-5.934205 0.394628,0 0.449755,0.555161 0.545061,5.489441 0.08643,4.474047 0.140213,4.915351 0.74944,6.148694 1.286213,2.603849 3.812963,3.32901 6.166811,1.769811 1.269149,-0.840689 3.259916,-3.340032 4.948417,-6.212556 l 1.043447,-1.775155 0.425272,1.374486 c 0.734097,2.372591 1.64891,3.539075 3.576422,4.560266 1.467038,0.777231 3.900426,0.94565 5.543484,0.383666 2.484668,-0.849836 7.302132,-4.716854 8.285578,-6.650884 l 0.612728,-1.204993 0.311011,2.008325 c 0.326362,2.107399 1.152901,4.419155 2.010781,5.623935 0.27955,0.392583 1.26744,1.118978 2.19531,1.614205 1.51757,0.809951 1.90222,0.89956 3.82925,0.89202 1.66804,-0.0061 2.42505,-0.143846 3.41996,-0.620369 1.84025,-0.881425 4.16487,-3.54858 5.67098,-6.506625 0.69338,-1.361764 1.37169,-2.590419 1.50736,-2.730328 0.15103,-0.155728 0.24838,0.623143 0.25104,2.008326 0.002,1.244496 0.0439,3.949715 0.0922,6.011599 0.10304,4.39455 0.35957,5.125681 2.10134,5.989242 1.33775,0.663253 2.17655,0.6086 5.14949,-0.335482 z M 33.489011,36.229306 c -0.489519,-0.914661 -0.612273,-3.262679 -0.272571,-5.213408 0.588955,-3.382044 3.050033,-7.349154 4.559195,-7.349154 0.581426,0 1.493008,1.060175 2.042766,2.375749 0.447235,1.070226 0.492627,3.176743 0.09119,4.234309 -0.568137,1.496956 -2.769679,4.945673 -3.651274,5.719726 -1.091744,0.958554 -2.325439,1.062262 -2.769365,0.232778 z m 71.922049,-8.010342 c 0.19001,-3.869841 0.61179,-5.333672 1.54189,-5.351454 0.49419,-0.0091 0.98171,1.860593 0.81507,3.126575 -0.16567,1.258633 -1.23174,3.700522 -2.08195,4.768763 -0.39415,0.495249 -0.41485,0.303785 -0.27501,-2.543884 z M 10.740224,44.71783 c 0.662746,-0.19863 1.894165,-0.562885 2.736481,-0.809446 1.506238,-0.440888 5.011287,-2.780992 6.600504,-4.406735 2.982123,-3.050669 4.95277,-6.932564 6.32595,-12.461254 C 28.00371,20.596227 27.957692,18.945617 26.050653,14.396838 24.41641,10.49874 22.715602,8.6138361 19.153562,6.7531611 16.189829,5.2050242 13.402056,4.619763 8.2303153,4.4599365 4.2840829,4.3379818 1.8898934,4.7260306 0.60397447,5.6960009 L 0,6.1515852 0.63557138,6.8373858 C 0.98514119,7.2145752 1.4009107,7.570612 1.5595024,7.6285835 c 0.1847944,0.067505 0.349671,2.0271913 0.4590862,5.4562755 0.093919,2.942984 0.2214515,6.075986 0.2834512,6.962218 0.5784803,8.268996 0.9989356,22.631934 0.6625229,22.631883 -0.079245,-10e-6 -0.5395258,0.331362 -1.0229422,0.736374 -1.15189025,0.965081 -0.9401546,1.600876 0.5876193,1.764447 1.8922724,0.202607 6.9415322,-0.08147 8.2109842,-0.461951 z M 10.98299,29.611768 C 10.561704,20.117092 10.577674,8.9944159 11.01325,8.5588806 c 0.545689,-0.5456893 2.239646,-0.3086619 3.238408,0.4531352 0.526613,0.4016612 1.0763,0.7303013 1.221532,0.7303013 0.403706,0 1.825658,2.1287629 2.325277,3.4811039 0.842632,2.280786 0.953949,3.727078 0.680143,8.836658 -0.439684,8.205053 -1.4051,11.16752 -4.577361,14.046088 -2.782571,2.524959 -2.48904,3.17821 -2.918219,-6.494399 z m 154.19317,11.049716 c 0.70563,-0.801734 1.34969,-2.886279 1.52772,-4.944752 0.07,-0.810033 0.20213,-1.974554 0.29348,-2.587839 0.0914,-0.613287 0.18985,-1.517026 0.21888,-2.008328 0.0291,-0.491299 0.13193,-1.018902 0.22865,-1.172445 0.0968,-0.153531 0.23158,-0.764084 0.29967,-1.356764 0.12733,-1.10829 1.40458,-3.889698 2.41963,-5.269101 0.3152,-0.42836 0.92585,-0.961985 1.357,-1.185846 0.72365,-0.375721 0.81238,-0.368566 1.15381,0.09301 0.26019,0.351786 0.32474,0.936774 0.21765,1.972844 -0.6886,6.662878 -0.99805,13.756837 -0.65699,15.061398 0.46294,1.770803 2.15162,2.727363 3.68993,2.090183 1.25072,-0.51807 1.76296,-1.811822 2.01991,-5.101583 0.19914,-2.549918 0.52628,-6.287228 0.56256,-6.426661 0.0191,-0.07368 0.12732,-0.689363 0.24039,-1.368272 0.37682,-2.262568 2.11754,-5.0593 2.75402,-4.42477 0.11754,0.117157 0.27393,3.125402 0.34757,6.684971 0.13045,6.305364 0.15066,6.496717 0.78519,7.434087 0.68242,1.008126 2.43006,1.961752 3.18963,1.740471 0.24393,-0.07105 0.98575,-0.15685 1.64851,-0.190644 0.66275,-0.0338 1.50624,-0.209074 1.87445,-0.389516 1.1703,-0.573542 3.12192,-2.468009 4.04423,-3.925779 0.49064,-0.7755 0.95628,-1.470247 1.03475,-1.543886 0.3525,-0.330805 2.41877,-3.479019 2.41877,-3.68531 0,-0.1267 0.21309,-0.463973 0.47352,-0.74948 0.26044,-0.285505 0.93543,-1.54335 1.49998,-2.795202 1.38423,-3.069363 1.34558,-2.945566 0.91968,-2.945566 -0.37902,0 -3.6965,3.359726 -3.6965,3.743564 0,0.358498 -4.2009,5.974589 -5.56232,7.436152 -2.13228,2.289126 -2.1217,2.313578 -1.98572,-4.587561 l 0.11809,-5.993392 -0.72178,-1.326159 c -2.26435,-4.160347 -4.88363,-4.398225 -8.44134,-0.766625 -0.80498,0.821711 -1.5581,1.494021 -1.67359,1.494021 -0.11551,0 -0.21,-0.274434 -0.21,-0.609854 0,-1.020535 -0.78594,-1.814748 -2.60242,-2.629739 -2.31302,-1.037779 -3.38812,-1.012174 -4.80504,0.114455 -0.61309,0.487474 -1.44144,1.274634 -1.84081,1.749256 -0.6381,0.758326 -1.02967,0.948353 -0.94415,0.458176 0.0625,-0.358214 -0.801,-1.708309 -1.77201,-2.770569 -1.90019,-2.078767 -2.83468,-1.355833 -3.44152,2.662338 -0.83278,5.514367 -1.41417,7.293175 -3.78416,11.577794 -2.77202,5.011449 -3.07671,4.525026 -3.28486,-5.244256 -0.17676,-8.295816 -0.14836,-8.202927 -2.83827,-9.284409 -1.51426,-0.608811 -1.57803,-0.613234 -1.93193,-0.133886 -0.20128,0.272632 -0.55868,1.184914 -0.79423,2.027282 l -0.42828,1.53158 -0.69476,-0.926655 c -1.39365,-1.858872 -2.56093,-2.21418 -5.23592,-1.5938 -2.20917,0.512331 -2.83702,0.838673 -4.48589,2.331693 -1.93451,1.751655 -3.02406,3.802124 -3.55474,6.689808 -0.71253,3.877199 -0.12578,6.492588 1.93104,8.607404 1.48629,1.52822 2.04108,1.77984 3.90682,1.771936 2.55899,-0.01083 4.88903,-1.627068 6.91932,-4.799592 0.67965,-1.062027 0.76185,-1.117419 0.76185,-0.513302 0,0.825335 1.59558,4.566804 2.26124,5.302339 0.26471,0.292508 0.88281,0.664344 1.37354,0.826305 2.38601,0.787443 4.83713,-0.0254 6.52836,-2.164995 l 1.0177,-1.287497 0.14484,1.079862 c 0.35266,2.62912 3.61937,4.024415 5.20485,2.223077 z m -23.49598,-4.279225 c -0.47963,-0.577903 -0.64245,-3.728495 -0.29042,-5.619411 0.58715,-3.15386 2.94728,-7.096104 4.2483,-7.096104 1.55195,0 2.85423,2.460114 2.66004,5.025 -0.10946,1.445745 -0.33599,2.02796 -1.63795,4.209705 -0.83101,1.392562 -1.91049,2.836677 -2.39885,3.209161 -1.00027,0.762951 -2.07915,0.876494 -2.58112,0.271649 z"
       id="path15674"
       sodipodi:nodetypes="csscsssssssssssscssssssssssssssssssssssssssssssssssssscssssssccsscscsssssssssccssscsssssssssscsssscssscsssccscccssscsccscssssssssssscscsssssscssssssccsssssssssssssssssssssssssssssscssssssssssssssscssssssssssscssssssssss" /></g></svg>
