<?xml version="1.0" encoding="UTF-8" standalone="no"?>
<!-- Created with Inkscape (http://www.inkscape.org/) -->

<svg
   width="250mm"
   height="252mm"
   viewBox="0 0 250 252"
   version="1.1"
   id="svg6772"
   inkscape:version="1.2 (dc2aedaf03, 2022-05-15)"
   sodipodi:docname="dancing_couple1.svg"
   xmlns:inkscape="http://www.inkscape.org/namespaces/inkscape"
   xmlns:sodipodi="http://sodipodi.sourceforge.net/DTD/sodipodi-0.dtd"
   xmlns="http://www.w3.org/2000/svg"
   xmlns:svg="http://www.w3.org/2000/svg">
  <sodipodi:namedview
     id="namedview6774"
     pagecolor="#ffffff"
     bordercolor="#000000"
     borderopacity="0.25"
     inkscape:showpageshadow="2"
     inkscape:pageopacity="0.0"
     inkscape:pagecheckerboard="0"
     inkscape:deskcolor="#d1d1d1"
     inkscape:document-units="mm"
     showgrid="false"
     inkscape:zoom="0.70710678"
     inkscape:cx="548.00775"
     inkscape:cy="226.27417"
     inkscape:window-width="1450"
     inkscape:window-height="1020"
     inkscape:window-x="128"
     inkscape:window-y="0"
     inkscape:window-maximized="0"
     inkscape:current-layer="g8059" />
  <defs
     id="defs6769">
    <clipPath
       clipPathUnits="userSpaceOnUse"
       id="clipPath6235">
      <path
         d="m -58.7055,231.3962 h 706.19 v -533.195 h -706.19 z"
         id="path6237"
         style="stroke-width:0.999998" />
    </clipPath>
    <clipPath
       clipPathUnits="userSpaceOnUse"
       id="clipPath6231">
      <path
         d="m -68.1611,242.9851 h 706.19 v -533.195 h -706.19 z"
         id="path6233"
         style="stroke-width:0.999998" />
    </clipPath>
    <clipPath
       clipPathUnits="userSpaceOnUse"
       id="clipPath6227">
      <path
         d="m -31.0698,231.5354 h 706.19 v -533.195 h -706.19 z"
         id="path6229"
         style="stroke-width:0.999998" />
    </clipPath>
    <clipPath
       clipPathUnits="userSpaceOnUse"
       id="clipPath6223">
      <path
         d="m -19.8374,242.8259 h 706.19 v -533.195 h -706.19 z"
         id="path6225"
         style="stroke-width:0.999998" />
    </clipPath>
    <clipPath
       clipPathUnits="userSpaceOnUse"
       id="clipPath6219">
      <path
         d="m -16.0332,86.3674 h 706.19 v -533.195 h -706.19 z"
         id="path6221"
         style="stroke-width:0.999998" />
    </clipPath>
    <clipPath
       clipPathUnits="userSpaceOnUse"
       id="clipPath6215">
      <path
         d="m -37.2763,78.6472 h 706.19 v -533.195 h -706.19 z"
         id="path6217"
         style="stroke-width:0.999998" />
    </clipPath>
    <clipPath
       clipPathUnits="userSpaceOnUse"
       id="clipPath6211">
      <path
         d="m -93.6845,93.1116 h 706.19 v -533.195 h -706.19 z"
         id="path6213"
         style="stroke-width:0.999998" />
    </clipPath>
    <clipPath
       clipPathUnits="userSpaceOnUse"
       id="clipPath6207">
      <path
         d="m -59.0376,157.5051 h 706.19 v -533.195 h -706.19 z"
         id="path6209"
         style="stroke-width:0.999998" />
    </clipPath>
    <clipPath
       clipPathUnits="userSpaceOnUse"
       id="clipPath6203">
      <path
         d="m -21.9917,236.9665 h 706.19 v -533.195 h -706.19 z"
         id="path6205"
         style="stroke-width:0.999998" />
    </clipPath>
    <clipPath
       clipPathUnits="userSpaceOnUse"
       id="clipPath6199">
      <path
         d="m -61.1772,66.9934 h 706.19 v -533.195 h -706.19 z"
         id="path6201"
         style="stroke-width:0.999998" />
    </clipPath>
    <clipPath
       clipPathUnits="userSpaceOnUse"
       id="clipPath6195">
      <path
         d="m -61.1772,66.9934 h 706.19 v -533.195 h -706.19 z"
         id="path6197"
         style="stroke-width:0.999998" />
    </clipPath>
    <clipPath
       clipPathUnits="userSpaceOnUse"
       id="clipPath6191">
      <path
         d="m -75.3735,137.9831 h 706.19 v -533.195 h -706.19 z"
         id="path6193"
         style="stroke-width:0.999998" />
    </clipPath>
    <clipPath
       clipPathUnits="userSpaceOnUse"
       id="clipPath6187">
      <path
         d="m -37.2475,92.323 h 706.19 v -533.195 h -706.19 z"
         id="path6189"
         style="stroke-width:0.999998" />
    </clipPath>
    <clipPath
       clipPathUnits="userSpaceOnUse"
       id="clipPath6183">
      <path
         d="m -16.2622,51.2092 h 706.19 v -533.195 h -706.19 z"
         id="path6185"
         style="stroke-width:0.999998" />
    </clipPath>
    <clipPath
       clipPathUnits="userSpaceOnUse"
       id="clipPath6179">
      <path
         d="m -94.9985,88.4509 h 706.19 v -533.195 h -706.19 z"
         id="path6181"
         style="stroke-width:0.999998" />
    </clipPath>
    <clipPath
       clipPathUnits="userSpaceOnUse"
       id="clipPath6175">
      <path
         d="m -60.4023,50.906 h 706.19 v -533.195 h -706.19 z"
         id="path6177"
         style="stroke-width:0.999998" />
    </clipPath>
    <clipPath
       clipPathUnits="userSpaceOnUse"
       id="clipPath6171">
      <path
         d="m -53.5498,62.9114 h 706.19 v -533.195 h -706.19 z"
         id="path6173"
         style="stroke-width:0.999998" />
    </clipPath>
    <clipPath
       clipPathUnits="userSpaceOnUse"
       id="clipPath6167">
      <path
         d="m -55.5927,44.2414 h 706.19 v -533.195 h -706.19 z"
         id="path6169"
         style="stroke-width:0.999998" />
    </clipPath>
    <clipPath
       clipPathUnits="userSpaceOnUse"
       id="clipPath6163">
      <path
         d="m -61.7128,43.1194 h 706.19 v -533.195 h -706.19 z"
         id="path6165"
         style="stroke-width:0.999998" />
    </clipPath>
    <clipPath
       clipPathUnits="userSpaceOnUse"
       id="clipPath6159">
      <path
         d="m -54.2539,46.2913 h 706.19 v -533.195 h -706.19 z"
         id="path6161"
         style="stroke-width:0.999998" />
    </clipPath>
    <clipPath
       clipPathUnits="userSpaceOnUse"
       id="clipPath6155">
      <path
         d="m -60.7334,49.0705 h 706.19 v -533.195 h -706.19 z"
         id="path6157"
         style="stroke-width:0.999998" />
    </clipPath>
    <clipPath
       clipPathUnits="userSpaceOnUse"
       id="clipPath6151">
      <path
         d="m -61.1362,54.4231 h 706.19 v -533.195 h -706.19 z"
         id="path6153"
         style="stroke-width:0.999998" />
    </clipPath>
    <clipPath
       clipPathUnits="userSpaceOnUse"
       id="clipPath6147">
      <path
         d="m -59.4121,55.9685 h 706.19 v -533.195 h -706.19 z"
         id="path6149"
         style="stroke-width:0.999998" />
    </clipPath>
    <clipPath
       clipPathUnits="userSpaceOnUse"
       id="clipPath5827">
      <path
         d="m -131.6152,90.0515 h 706.19 v -533.195 h -706.19 z"
         id="path5829"
         style="stroke-width:0.999998" />
    </clipPath>
    <clipPath
       clipPathUnits="userSpaceOnUse"
       id="clipPath5823">
      <path
         d="m -139.6064,98.7585 h 706.19 v -533.195 h -706.19 z"
         id="path5825"
         style="stroke-width:0.999998" />
    </clipPath>
    <clipPath
       clipPathUnits="userSpaceOnUse"
       id="clipPath5819">
      <path
         d="m -129.2793,42.1077 h 706.19 v -533.195 h -706.19 z"
         id="path5821"
         style="stroke-width:0.999998" />
    </clipPath>
    <clipPath
       clipPathUnits="userSpaceOnUse"
       id="clipPath5815">
      <path
         d="m -193.4838,173.4143 h 706.19 v -533.195 h -706.19 z"
         id="path5817"
         style="stroke-width:0.999998" />
    </clipPath>
    <clipPath
       clipPathUnits="userSpaceOnUse"
       id="clipPath5811">
      <path
         d="m -165.4638,190.3245 h 706.19 v -533.195 h -706.19 z"
         id="path5813"
         style="stroke-width:0.999998" />
    </clipPath>
    <clipPath
       clipPathUnits="userSpaceOnUse"
       id="clipPath5807">
      <path
         d="m -209.2788,61.9812 h 706.19 v -533.195 h -706.19 z"
         id="path5809"
         style="stroke-width:0.999998" />
    </clipPath>
    <clipPath
       clipPathUnits="userSpaceOnUse"
       id="clipPath5803">
      <path
         d="m -164.7148,85.6394 h 706.19 v -533.195 h -706.19 z"
         id="path5805"
         style="stroke-width:0.999998" />
    </clipPath>
    <clipPath
       clipPathUnits="userSpaceOnUse"
       id="clipPath5799">
      <path
         d="m -181.6367,132.4988 h 706.19 v -533.195 h -706.19 z"
         id="path5801"
         style="stroke-width:0.999998" />
    </clipPath>
    <clipPath
       clipPathUnits="userSpaceOnUse"
       id="clipPath5795">
      <path
         d="m -154.7666,143.2556 h 706.19 v -533.195 h -706.19 z"
         id="path5797"
         style="stroke-width:0.999998" />
    </clipPath>
    <clipPath
       clipPathUnits="userSpaceOnUse"
       id="clipPath5791">
      <path
         d="m -197.6303,41.2668 h 706.19 v -533.195 h -706.19 z"
         id="path5793"
         style="stroke-width:0.999998" />
    </clipPath>
    <clipPath
       clipPathUnits="userSpaceOnUse"
       id="clipPath5787">
      <path
         d="m -146.9687,107.3835 h 706.19 v -533.195 h -706.19 z"
         id="path5789"
         style="stroke-width:0.999998" />
    </clipPath>
    <clipPath
       clipPathUnits="userSpaceOnUse"
       id="clipPath5783">
      <path
         d="m -195.7749,82.0124 h 706.19 v -533.195 h -706.19 z"
         id="path5785"
         style="stroke-width:0.999998" />
    </clipPath>
    <clipPath
       clipPathUnits="userSpaceOnUse"
       id="clipPath5779">
      <path
         d="m -199.5498,47.4299 h 706.19 v -533.195 h -706.19 z"
         id="path5781"
         style="stroke-width:0.999998" />
    </clipPath>
    <clipPath
       clipPathUnits="userSpaceOnUse"
       id="clipPath5775">
      <path
         d="m -209.2182,62.0207 h 706.19 v -533.195 h -706.19 z"
         id="path5777"
         style="stroke-width:0.999998" />
    </clipPath>
    <clipPath
       clipPathUnits="userSpaceOnUse"
       id="clipPath5771">
      <path
         d="m -177.7812,42.3098 h 706.19 v -533.195 h -706.19 z"
         id="path5773"
         style="stroke-width:0.999998" />
    </clipPath>
    <clipPath
       clipPathUnits="userSpaceOnUse"
       id="clipPath5767">
      <path
         d="m -155.8764,39.8938 h 706.19 v -533.195 h -706.19 z"
         id="path5769"
         style="stroke-width:0.999998" />
    </clipPath>
    <clipPath
       clipPathUnits="userSpaceOnUse"
       id="clipPath5763">
      <path
         d="m -159.1479,58.4265 h 706.19 v -533.195 h -706.19 z"
         id="path5765"
         style="stroke-width:0.999998" />
    </clipPath>
    <clipPath
       clipPathUnits="userSpaceOnUse"
       id="clipPath5759">
      <path
         d="m -163.7099,48.2449 h 706.19 v -533.195 h -706.19 z"
         id="path5761"
         style="stroke-width:0.999998" />
    </clipPath>
    <clipPath
       clipPathUnits="userSpaceOnUse"
       id="clipPath5755">
      <path
         d="m -155.2231,47.1399 h 706.19 v -533.195 h -706.19 z"
         id="path5757"
         style="stroke-width:0.999998" />
    </clipPath>
    <clipPath
       clipPathUnits="userSpaceOnUse"
       id="clipPath5751">
      <path
         d="m -159.1381,53.8718 h 706.19 v -533.195 h -706.19 z"
         id="path5753"
         style="stroke-width:0.999998" />
    </clipPath>
    <clipPath
       clipPathUnits="userSpaceOnUse"
       id="clipPath5747">
      <path
         d="m -162.519,50.762 h 706.19 v -533.195 h -706.19 z"
         id="path5749"
         style="stroke-width:0.999998" />
    </clipPath>
    <clipPath
       clipPathUnits="userSpaceOnUse"
       id="clipPath5743">
      <path
         d="m -154.6606,48.8054 h 706.19 v -533.195 h -706.19 z"
         id="path5745"
         style="stroke-width:0.999998" />
    </clipPath>
    <clipPath
       clipPathUnits="userSpaceOnUse"
       id="clipPath5739">
      <path
         d="m -161.396,48.7615 h 706.19 v -533.195 h -706.19 z"
         id="path5741"
         style="stroke-width:0.999998" />
    </clipPath>
    <clipPath
       clipPathUnits="userSpaceOnUse"
       id="clipPath5735">
      <path
         d="m -164.0029,77.8152 h 706.19 v -533.195 h -706.19 z"
         id="path5737"
         style="stroke-width:0.999998" />
    </clipPath>
    <clipPath
       clipPathUnits="userSpaceOnUse"
       id="clipPath5731">
      <path
         d="m -185.3671,241.47 h 706.19 v -533.195 h -706.19 z"
         id="path5733"
         style="stroke-width:0.999998" />
    </clipPath>
    <clipPath
       clipPathUnits="userSpaceOnUse"
       id="clipPath5727">
      <path
         d="M -125.56,242.946 H 580.63 V -290.249 H -125.56 Z"
         id="path5729"
         style="stroke-width:0.999998" />
    </clipPath>
  </defs>
  <g
     inkscape:label="Layer 1"
     inkscape:groupmode="layer"
     id="layer1">
    <g
       id="g8059"
       transform="matrix(3.2788922,0,0,3.2788922,60.804675,-379.28724)">
      <g
         id="g2910"
         transform="matrix(0.35277777,0,0,-0.35277777,2.1656864,186.98156)"
         clip-path="url(#clipPath6235)">
        <path
           d="m 0,0 -4.682,-11.981 4.987,-1.477 2.834,2.17 -0.166,0.586 3.679,8.734 z"
           style="fill:#ff9a7e;fill-opacity:1;fill-rule:nonzero;stroke:none"
           id="path2912" />
      </g>
      <g
         id="g2914"
         transform="matrix(0.35277777,0,0,-0.35277777,5.5014119,191.06987)"
         clip-path="url(#clipPath6231)">
        <path
           d="m 0,0 -11.788,4.008 c -0.58,0.198 -1.291,-0.016 -1.412,-0.425 l -1.923,-6.498 c -0.111,-0.378 0.345,-0.732 0.952,-0.738 L -1.5,-3.789 C 1.829,-3.825 2.946,-1.002 0,0"
           style="fill:#131055;fill-opacity:1;fill-rule:nonzero;stroke:none"
           id="path2916" />
      </g>
      <g
         id="g2918"
         transform="matrix(0.35277777,0,0,-0.35277777,-7.5835742,187.03067)"
         clip-path="url(#clipPath6227)">
        <path
           d="m 0,0 2.386,-12.64 -5.174,-0.53 -2.383,2.657 0.271,0.545 -2.001,9.263 z"
           style="fill:#ff9a7e;fill-opacity:1;fill-rule:nonzero;stroke:none"
           id="path2920" />
      </g>
      <g
         id="g2922"
         transform="matrix(0.35277777,0,0,-0.35277777,-11.546115,191.01371)"
         clip-path="url(#clipPath6223)">
        <path
           d="m 0,0 11.788,4.008 c 0.58,0.198 1.291,-0.016 1.412,-0.425 l 1.923,-6.498 c 0.112,-0.378 -0.345,-0.732 -0.952,-0.738 L 1.5,-3.789 C -1.828,-3.825 -2.946,-1.001 0,0"
           style="fill:#131055;fill-opacity:1;fill-rule:nonzero;stroke:none"
           id="path2924" />
      </g>
      <g
         id="g2926"
         transform="matrix(0.35277777,0,0,-0.35277777,-12.888152,135.81863)"
         clip-path="url(#clipPath6219)">
        <path
           d="M 0,0 -0.182,-0.139 C -0.217,-0.167 -1.165,-0.93 -1.958,-1.569 -2.522,-2.022 -3.007,-2.413 -3.03,-2.433 l -1.939,-1.504 c -0.409,-0.318 -0.868,-0.248 -1.163,-0.075 -0.294,0.174 -0.58,0.541 -0.5,1.054 l 0.374,2.425 c 0.599,3.885 3.835,21.727 4.812,27.102 l 0.028,0.152 -4.161,1.539 -0.066,-0.167 c -0.478,-1.214 -4.753,-12.164 -7.668,-22.823 -3.798,-13.885 -2.71,-17.798 -2.067,-18.836 l 0.285,-0.229 c 0.07,-0.051 1.75,-1.261 5.428,-1.261 0.897,0 1.858,0.072 2.857,0.213 2.557,0.354 8.939,3.073 11.423,4.411 l 0.151,0.081 z"
           style="fill:#ff9084;fill-opacity:1;fill-rule:nonzero;stroke:none"
           id="path2928" />
      </g>
      <g
         id="g2930"
         transform="matrix(0.35277777,0,0,-0.35277777,-5.394059,133.09511)"
         clip-path="url(#clipPath6215)">
        <path
           d="m 0,0 c 0.029,-0.059 0.059,-0.117 0.089,-0.175 2.67,-5.181 0.789,-11.545 -4.302,-14.382 -12.829,-7.15 -11.815,-6.707 -14.317,-7.974 -0.98,-0.496 -2.175,-0.036 -2.564,0.991 l -3.596,9.48 c -0.429,1.13 -0.06,2.401 0.912,3.118 4.456,3.286 15.191,10.111 18.956,12.817 C -1.802,6.046 -1.695,3.311 0,0"
           style="fill:#7866a1;fill-opacity:1;fill-rule:nonzero;stroke:none"
           id="path2932" />
      </g>
      <g
         id="g2934"
         transform="matrix(0.35277777,0,0,-0.35277777,14.5055,138.19783)"
         clip-path="url(#clipPath6211)">
        <path
           d="M 0,0 -0.302,-0.129 C -0.611,-0.261 -0.935,-0.408 -1.267,-0.56 l 0.116,-0.35 -0.152,0.333 c -0.814,-0.373 -1.73,-0.791 -2.702,-1.106 -2.959,-0.957 -6.468,-2.211 -10.181,-3.539 -3.263,-1.167 -6.635,-2.373 -9.925,-3.479 l -0.249,-0.083 v -9.198 l 0.505,0.205 c 10.874,4.43 23.378,11.734 25.772,13.152 l 0.511,0.311 z"
           style="fill:#ff9084;fill-opacity:1;fill-rule:nonzero;stroke:none"
           id="path2936" />
      </g>
      <g
         id="g2938"
         transform="matrix(0.35277777,0,0,-0.35277777,2.2828439,160.91442)"
         clip-path="url(#clipPath6207)">
        <path
           d="m 0,0 c 4.383,-9.709 10.292,-17.447 12.958,-26.506 1.203,-4.089 0.798,-8.471 -1.094,-12.29 -1.389,-2.805 -5.547,-6.847 -7.481,-10.401 -2.608,-4.795 -7.808,-17.887 -11.112,-26.698 -0.649,-1.729 0.641,-3.566 2.487,-3.566 h 9.239 c 1.357,0 2.608,0.747 3.271,1.932 4.991,8.921 9.928,16.863 14.922,24.686 8.365,13.106 11.184,17.521 9.307,29.21 -1.839,11.476 -6.685,23.688 -14.81,37.335 l -0.815,1.366 -0.099,-0.07 c -1.315,2.137 -3.917,6.864 -4.174,8.893 l -0.291,2.292 -15.449,-9.822 -4.808,-0.836 0.595,-1.644 C -6.025,10.215 -2.619,5.8 0,0"
           style="fill:#e4e2fd;fill-opacity:1;fill-rule:nonzero;stroke:none"
           id="path2940" />
      </g>
      <g
         id="g2942"
         transform="matrix(0.35277777,0,0,-0.35277777,-10.786126,188.94664)"
         clip-path="url(#clipPath6203)">
        <path
           d="m 0,0 h 8.859 c 2.084,0 3.656,1.866 3.341,3.926 -1.431,9.338 -3.686,18.175 -6.094,27.454 -0.906,3.493 -1.75,6.742 -2.382,9.512 -0.954,4.173 -0.25,8.565 2.007,12.203 4.784,7.708 7.94,9.504 14.076,15.741 4.483,4.557 12.525,14.144 14.73,17.424 l 1.339,1.994 -3.792,4.677 -14.306,11.331 -1.15,-2.96 c -0.6,-1.543 -3.533,-4.879 -5.66,-7.016 l -0.082,0.096 -1.537,-1.55 C 2.866,86.292 -12.592,69.416 -16.078,53.966 -17.59,47.76 -15.703,40.433 -10.427,28.707 -7.128,21.378 -6.237,13.368 -3.264,2.505 -2.861,1.032 -1.527,0 0,0"
           style="fill:#e4e2fd;fill-opacity:1;fill-rule:nonzero;stroke:none"
           id="path2944" />
      </g>
      <g
         id="g2946"
         transform="matrix(0.35277777,0,0,-0.35277777,3.0376472,128.98391)"
         clip-path="url(#clipPath6199)">
        <path
           d="m 0,0 c -5.934,0.265 -10.597,-1.031 -15.392,-2.104 -0.462,-0.104 -0.916,-0.217 -1.37,-0.331 -0.556,-0.14 -1.106,-0.287 -1.647,-0.443 l 10.117,-7.468 c 2.047,-1.51 4.973,-0.542 5.714,1.891 z"
           style="fill:#ff9084;fill-opacity:1;fill-rule:nonzero;stroke:none"
           id="path2948" />
      </g>
      <g
         id="g2950"
         transform="matrix(0.35277777,0,0,-0.35277777,3.0376472,128.98391)"
         clip-path="url(#clipPath6195)">
        <path
           d="m 0,0 -2.457,-8.06 c -0.801,-2.626 -3.958,-3.671 -6.167,-2.04 l -9.785,7.222 c -0.819,-0.235 -1.604,-0.503 -2.383,-0.777 L -7.41,-13.81 c 2.085,-1.582 5.108,-0.658 5.952,1.819 l 4.01,11.77 C 1.68,-0.121 0.821,-0.037 0,0"
           style="fill:#ffea9b;fill-opacity:1;fill-rule:nonzero;stroke:none"
           id="path2952" />
      </g>
      <g
         id="g2954"
         transform="matrix(0.35277777,0,0,-0.35277777,8.0457862,154.0275)"
         clip-path="url(#clipPath6191)">
        <path
           d="m 0,0 c -2.919,6.147 -4.933,12.704 -5.455,19.904 -0.728,10.056 2.167,17.727 4.245,27.252 1.705,7.812 0.015,14.421 -4.196,20.065 -1.482,1.987 -3.739,3.26 -6.202,3.544 -0.036,0.004 -3.89,-11.308 -3.89,-11.308 -0.921,-2.703 -4.219,-3.711 -6.494,-1.984 l -12.996,9.861 c -6.865,-2.419 -12.048,-6.399 -12.931,-12.897 -2.677,-19.683 -2.347,-40.091 0.693,-59.665 0.213,-1.369 -1.116,-3.195 -0.045,-4.077 3.372,-2.775 6.55,2.749 13.147,2.154 6.701,-0.605 25.131,-1.108 30.417,-0.917 C 1.594,-7.875 2.275,-4.792 0,0"
           style="fill:#7866a1;fill-opacity:1;fill-rule:nonzero;stroke:none"
           id="path2956" />
      </g>
      <g
         id="g2958"
         transform="matrix(0.35277777,0,0,-0.35277777,-5.404219,137.91963)"
         clip-path="url(#clipPath6187)">
        <path
           d="M 0,0 C -0.01,-0.167 -0.036,-0.328 -0.036,-0.498 V -5.08 c 0,-3.232 1.872,-5.877 4.159,-5.877 2.287,0 4.159,2.645 4.159,5.877 v 4.582 c 0,0.17 -0.026,0.331 -0.036,0.498 z"
           style="fill:#ffea9b;fill-opacity:1;fill-rule:nonzero;stroke:none"
           id="path2960" />
      </g>
      <g
         id="g2962"
         transform="matrix(0.35277777,0,0,-0.35277777,-12.807366,123.41559)"
         clip-path="url(#clipPath6183)">
        <path
           d="m 0,0 c -0.27,-0.51 -0.806,-1.894 -1.389,-1.884 -0.285,0.006 -0.351,0.399 -0.328,0.686 0.11,1.335 0.254,2.668 0.434,3.996 0.116,0.857 0.031,1.127 -0.7,1.681 -1.122,0.852 -1.896,1.208 -3.389,0.11 -1.335,-0.982 -2.847,-2.85 -3.202,-4.195 -0.682,-2.582 1.678,-7.377 3.815,-8.739 1.108,-0.705 3.202,-0.913 3.655,0.758 0.816,3.012 1.009,2.341 1.61,4.235 0.33,1.038 0.471,2.105 0.397,3.168 C 0.869,0.292 0.225,0.425 0,0"
           style="fill:#ff9084;fill-opacity:1;fill-rule:nonzero;stroke:none"
           id="path2964" />
      </g>
      <g
         id="g2966"
         transform="matrix(0.35277777,0,0,-0.35277777,14.96905,136.55364)"
         clip-path="url(#clipPath6179)">
        <path
           d="m 0,0 c -0.089,-0.57 -0.491,-1.999 -0.018,-2.34 0.231,-0.167 0.52,0.108 0.673,0.352 0.714,1.134 1.397,2.287 2.049,3.459 0.421,0.755 0.651,0.92 1.568,0.925 C 5.681,2.405 6.514,2.227 7.05,0.453 7.53,-1.133 7.621,-3.536 7.099,-4.825 6.096,-7.3 1.333,-9.724 -1.193,-9.532 c -1.31,0.1 -3.111,1.189 -2.472,2.797 1.152,2.901 0.596,2.48 1.25,4.356 0.358,1.028 0.885,1.966 1.582,2.773 C -0.521,0.755 0.074,0.476 0,0"
           style="fill:#ff9084;fill-opacity:1;fill-rule:nonzero;stroke:none"
           id="path2968" />
      </g>
      <g
         id="g2970"
         transform="matrix(0.35277777,0,0,-0.35277777,2.7642797,123.30863)"
         clip-path="url(#clipPath6175)">
        <path
           d="m 0,0 -1.026,-0.504 c -0.592,-0.291 -1.279,0.159 -1.261,0.826 l 0.003,0.111 C -2.033,0.189 -1.663,0.08 -1.31,0.253 l 1.027,0.505 c 0.42,0.207 0.632,0.64 0.614,1.077 L 0.444,1.663 C 0.823,1.084 0.614,0.302 0,0 M -4.605,5.543 -6.687,5.162 c -0.303,-0.056 -0.598,0.15 -0.654,0.459 -0.056,0.308 0.146,0.606 0.45,0.662 l 2.081,0.382 c 0.305,0.055 0.599,-0.151 0.655,-0.46 0.056,-0.308 -0.146,-0.606 -0.45,-0.662 m -1.181,-2.92 c -0.352,-0.064 -0.719,0.329 -0.819,0.879 -0.101,0.55 0.104,1.048 0.457,1.113 0.352,0.064 0.719,-0.329 0.819,-0.879 0.1,-0.55 -0.104,-1.048 -0.457,-1.113 M 1.627,6.197 C 1.98,6.261 2.347,5.868 2.447,5.318 2.547,4.768 2.343,4.27 1.99,4.205 1.638,4.141 1.271,4.534 1.171,5.084 1.071,5.634 1.275,6.132 1.627,6.197 M 0.514,13.226 C -1.018,11.523 -5.528,7.035 -12.146,4.678 l 1.385,-2.928 c 1.401,-2.964 1.795,-3.574 5.022,-3.846 3.839,-0.323 9.575,1.219 9.902,1.308 -0.02,0.157 -0.031,0.311 -0.059,0.469 L 3.581,7.044 1.515,6.665 C 1.21,6.609 0.916,6.816 0.86,7.125 0.804,7.433 1.006,7.731 1.311,7.787 l 2.081,0.381 c 0.003,0.133 -0.026,0.268 -0.061,0.399 -0.5,1.85 -1.501,3.442 -2.817,4.659"
           style="fill:#ff9084;fill-opacity:1;fill-rule:nonzero;stroke:none"
           id="path2972" />
      </g>
      <g
         id="g2974"
         transform="matrix(0.35277777,0,0,-0.35277777,0.34687003,127.54387)"
         clip-path="url(#clipPath6171)">
        <path
           d="m 0,0 c -1.06,0.449 -3.117,1.633 -4.011,2.365 -1.805,1.476 -2.737,3.946 -2.98,6.279 l -0.764,5.119 C -9.065,13.497 -9.893,12 -9.606,10.386 -9.435,9.415 -8.895,8.63 -8.208,8.196 l 0.536,-4.07 1.221,-9.261 c 0.234,-1.78 1.876,-3.026 3.652,-2.773 l 4.221,0.6 c 1.751,0.249 2.975,1.862 2.745,3.616 L 3.705,-0.189 C 2.279,-0.36 0.897,-0.379 0,0"
           style="fill:#ff9084;fill-opacity:1;fill-rule:nonzero;stroke:none"
           id="path2976" />
      </g>
      <g
         id="g2978"
         transform="matrix(0.35277777,0,0,-0.35277777,1.0675597,120.95751)"
         clip-path="url(#clipPath6167)">
        <path
           d="m 0,0 -2.081,-0.381 c -0.304,-0.056 -0.507,-0.354 -0.451,-0.662 0.056,-0.309 0.351,-0.516 0.655,-0.46 l 2.081,0.382 c 0.304,0.056 0.507,0.353 0.451,0.662 C 0.599,-0.151 0.304,0.056 0,0"
           style="fill:#4e1f4d;fill-opacity:1;fill-rule:nonzero;stroke:none"
           id="path2980" />
      </g>
      <g
         id="g2982"
         transform="matrix(0.35277777,0,0,-0.35277777,3.226595,120.56169)"
         clip-path="url(#clipPath6163)">
        <path
           d="m 0,0 c -0.304,-0.056 -0.507,-0.354 -0.451,-0.662 0.056,-0.308 0.351,-0.515 0.655,-0.46 l 2.067,0.379 c 0.318,0.059 0.521,0.357 0.465,0.665 C 2.682,0.219 2.406,0.415 2.115,0.38 2.081,0.381 0,0 0,0"
           style="fill:#4e1f4d;fill-opacity:1;fill-rule:nonzero;stroke:none"
           id="path2984" />
      </g>
      <g
         id="g2986"
         transform="matrix(0.35277777,0,0,-0.35277777,3.466378,121.82517)">
        <path
           d="M 0,0 C 0.353,0.064 0.557,0.563 0.457,1.113 0.356,1.663 -0.01,2.056 -0.363,1.992 -0.715,1.927 -0.919,1.429 -0.819,0.879 -0.719,0.329 -0.353,-0.064 0,0"
           style="fill:#4e1f4d;fill-opacity:1;fill-rule:nonzero;stroke:none"
           id="path2988" />
      </g>
      <g
         id="g2990"
         transform="matrix(0.35277777,0,0,-0.35277777,0.59526086,121.68067)"
         clip-path="url(#clipPath6159)">
        <path
           d="m 0,0 c -0.353,-0.065 -0.557,-0.563 -0.457,-1.113 0.101,-0.55 0.467,-0.943 0.82,-0.879 0.352,0.065 0.557,0.563 0.456,1.113 C 0.719,-0.329 0.353,0.064 0,0"
           style="fill:#4e1f4d;fill-opacity:1;fill-rule:nonzero;stroke:none"
           id="path2992" />
      </g>
      <g
         id="g2994"
         transform="matrix(0.35277777,0,0,-0.35277777,2.8810844,122.66111)"
         clip-path="url(#clipPath6155)">
        <path
           d="m 0,0 c 0.018,-0.437 -0.194,-0.871 -0.614,-1.078 l -1.027,-0.505 c -0.353,-0.173 -0.723,-0.063 -0.974,0.18 l -0.003,-0.11 c -0.018,-0.667 0.669,-1.118 1.261,-0.827 l 1.026,0.505 c 0.614,0.301 0.823,1.084 0.444,1.662 z"
           style="fill:#fc5c4b;fill-opacity:1;fill-rule:nonzero;stroke:none"
           id="path2996" />
      </g>
      <g
         id="g2998"
         transform="matrix(0.35277777,0,0,-0.35277777,3.0231833,124.54939)"
         clip-path="url(#clipPath6151)">
        <path
           d="m 0,0 c 0.445,-1.405 -1.724,-1.545 -1.724,-1.545 -1.488,-0.046 -1.974,0.63 -2.15,1.227 z M 3.461,2.738 C 3.102,2.64 -2.634,1.098 -6.473,1.421 -9.7,1.693 -10.094,2.303 -11.495,5.267 l -1.384,2.928 c 6.617,2.357 11.127,6.845 12.659,8.548 1.316,-1.217 2.317,-2.808 2.817,-4.659 0.201,0.067 0.392,0.191 0.537,0.356 0.399,0.456 0.312,0.865 0.229,1.423 -0.23,1.534 -0.587,3.063 -1.1,4.527 -0.411,1.171 -1.035,2.421 -2.189,2.845 -0.473,0.173 -0.998,0.189 -1.449,0.416 -0.742,0.372 -1.11,1.21 -1.505,1.948 -0.395,0.738 -0.998,1.509 -1.825,1.53 -0.789,0.02 -1.447,-0.663 -2.233,-0.726 -1.166,-0.092 -2.338,1.177 -3.358,0.601 -0.314,-0.177 -0.529,-0.503 -0.805,-0.728 -0.621,0.084 -1.232,0.073 -1.81,-0.047 -0.172,0.022 -0.342,0.023 -0.508,-0.023 -0.196,-0.056 -0.352,-0.184 -0.481,-0.338 -2.079,-1.069 -2.59,-3.674 -4.149,-5.333 -1.716,-1.827 -4.317,-3.201 -4.218,-6.238 0.016,-0.494 0.119,-0.991 0.056,-1.48 -0.078,-0.595 -0.396,-1.122 -0.502,-1.712 -0.31,-1.717 1.169,-3.268 2.01,-4.833 -0.1,-0.459 -0.275,-0.916 -0.424,-1.359 -0.292,-0.863 -0.455,-1.92 0.141,-2.607 0.569,-0.656 1.596,-0.689 2.229,-1.283 0.936,-0.879 0.8,-2.764 2.011,-3.17 0.479,-0.161 1.029,-0.017 1.488,-0.215 l -0.536,4.07 c -0.687,0.434 -1.227,1.219 -1.398,2.189 -0.287,1.615 0.541,3.111 1.85,3.377 l 0.764,-5.118 c 0.244,-2.334 1.176,-4.803 2.98,-6.279 0.895,-0.732 2.952,-1.917 4.012,-2.365 0.897,-0.38 2.279,-0.36 3.705,-0.19 1.771,0.212 3.608,0.657 4.661,0.867 1.775,0.353 3.306,2.551 3.337,4.385 z"
           style="fill:#4e1f4d;fill-opacity:1;fill-rule:nonzero;stroke:none"
           id="path3000" />
      </g>
      <g
         id="g3002"
         transform="matrix(0.35277777,0,0,-0.35277777,2.4149591,125.09457)"
         clip-path="url(#clipPath6147)">
        <path
           d="M 0,0 C 0,0 2.169,0.141 1.724,1.545 L -2.149,1.228 C -1.974,0.631 -1.488,-0.046 0,0"
           style="fill:#ffffff;fill-opacity:1;fill-rule:nonzero;stroke:none"
           id="path3004" />
      </g>
      <g
         id="g3346"
         transform="matrix(0.35277777,0,0,-0.35277777,27.886608,137.19494)"
         clip-path="url(#clipPath5827)">
        <path
           d="m 0,0 -5.213,-2.606 c 0.931,-1.012 1.843,-1.965 2.744,-2.89 l 5.296,2.335 C 1.867,-2.109 0.916,-1.054 0,0"
           style="fill:#ffea9b;fill-opacity:1;fill-rule:nonzero;stroke:none"
           id="path3348" />
      </g>
      <g
         id="g3350"
         transform="matrix(0.35277777,0,0,-0.35277777,30.705725,140.26658)"
         clip-path="url(#clipPath5823)">
        <path
           d="M 0,0 C -1.716,1.821 -3.46,3.679 -5.164,5.546 L -10.46,3.211 c 4.076,-4.186 7.798,-7.493 10.62,-9.825 l 3.119,3.118 C 2.21,-2.346 1.111,-1.179 0,0"
           style="fill:#ff9084;fill-opacity:1;fill-rule:nonzero;stroke:none"
           id="path3352" />
      </g>
      <g
         id="g3354"
         transform="matrix(0.35277777,0,0,-0.35277777,27.062554,120.28144)"
         clip-path="url(#clipPath5819)">
        <path
           d="m 0,0 c -0.556,-1.451 -0.831,-3.06 -1.77,-4.283 -0.806,-1.045 -2.018,-1.692 -2.904,-2.668 -0.887,-0.976 -1.378,-2.594 -0.509,-3.638 0.413,-0.495 1.05,-0.755 1.461,-1.248 1.159,-1.392 -0.08,-3.35 -0.554,-5.061 -0.531,-1.917 0.076,-4.144 1.518,-5.567 1.036,-1.023 2.554,-1.824 2.746,-3.259 0.148,-1.131 -0.636,-2.297 -0.182,-3.352 0.666,-1.548 3.061,-1.13 4.322,-2.245 0.888,-0.786 0.984,-2.106 1.372,-3.224 0.725,-2.087 2.743,-3.678 4.904,-3.867 1.156,-0.101 2.368,0.157 3.443,-0.312 1.387,-0.607 2.193,-2.286 3.65,-2.669 3.027,-0.792 3.742,2.821 5.806,4.73 2.596,2.404 7.613,2.04 8.776,5.424 0.273,0.792 0.296,1.747 0.914,2.301 0.628,0.562 1.634,0.475 2.32,0.964 1.286,0.919 0.745,3.121 1.311,4.536 0.089,0.118 0.547,0.816 0.648,0.885 5.322,7.722 6.166,16.976 1.287,22.914 C 34.517,5.28 27.512,6.74 20.353,4.911 20.289,4.969 20.253,5.035 20.187,5.093 18.619,6.464 16.686,6.827 14.665,6.723 10.958,6.531 9.797,3.156 6.735,2.551 5.563,2.321 4.372,3.086 3.178,3.008 1.631,2.909 0.556,1.45 0,0"
           style="fill:#131055;fill-opacity:1;fill-rule:nonzero;stroke:none"
           id="path3356" />
      </g>
      <g
         id="g3358"
         transform="matrix(0.35277777,0,0,-0.35277777,49.712474,166.52684)"
         clip-path="url(#clipPath5815)">
        <path
           d="m 0,0 h -14.417 c 1.801,-5.457 2.693,-10.17 2.724,-14.358 0.03,-4.061 -1.572,-10.328 -3.597,-18.261 -2.159,-8.445 -4.604,-18.017 -5.827,-27.793 -0.592,-4.743 0.922,-7.65 2.647,-7.977 1.432,-0.277 3.465,1.326 4.526,5.48 0.28,1.1 0.559,2.172 0.839,3.225 l 0.297,1.121 c 2.401,8.971 4.776,16.263 6.877,22.719 C -1.327,-21.699 1.765,-12.199 0,0"
           style="fill:#ff9084;fill-opacity:1;fill-rule:nonzero;stroke:none"
           id="path3360" />
      </g>
      <g
         id="g3362"
         transform="matrix(0.35277777,0,0,-0.35277777,39.827641,172.49238)"
         clip-path="url(#clipPath5811)">
        <path
           d="m 0,0 c -1.639,-10.879 -4.75,-13.434 -16.326,-22.942 -5.028,-4.129 -24.873,-20.817 -29.278,-25.363 -0.818,-0.845 -0.188,-1.086 -1.038,-1.528 -1.944,-1.011 -2.932,-1.146 -3.844,-0.044 -1.159,1.399 -1.175,4.433 1.08,7.3 6.986,8.891 15.834,17.364 22.945,24.172 6.065,5.81 10.857,10.399 12.995,13.693 l 0.15,0.233 0.056,0.27 c 1.142,5.57 1.098,12.412 -0.142,20.875 H 1.396 C 1.294,11.063 0.826,5.463 0,0"
           style="fill:#ff9084;fill-opacity:1;fill-rule:nonzero;stroke:none"
           id="path3364" />
      </g>
      <g
         id="g3366"
         transform="matrix(0.35277777,0,0,-0.35277777,55.23601,127.2924)"
         clip-path="url(#clipPath5807)">
        <path
           d="m 0,0 -4.946,-1.67 c -0.692,-0.234 -1.028,-1.018 -0.724,-1.681 0.784,-1.714 1.465,-3.258 1.955,-4.467 0.211,-0.521 -0.167,-1.084 -0.728,-1.1 -3.042,-0.09 -11.047,-0.327 -11.047,-0.327 1.086,-5.895 0.688,-3.735 1.986,-10.786 6.96,1.268 14.624,3 18.59,5.006 1.434,0.841 2.202,2.525 1.5,3.98 C 5.577,-8.013 3.784,-4.344 1.742,-0.67 1.401,-0.056 0.666,0.225 0,0"
           style="fill:#ff5b56;fill-opacity:1;fill-rule:nonzero;stroke:none"
           id="path3368" />
      </g>
      <g
         id="g3370"
         transform="matrix(0.35277777,0,0,-0.35277777,39.563411,135.61975)"
         clip-path="url(#clipPath5803)">
        <path
           d="m 0,0 h -9.797 c -0.428,0 -0.778,0.35 -0.778,0.777 0,0.428 0.35,0.778 0.778,0.778 H 0 c 0.427,0 0.777,-0.35 0.777,-0.778 C 0.777,0.35 0.427,0 0,0"
           style="fill:#fff14e;fill-opacity:1;fill-rule:nonzero;stroke:none"
           id="path3372" />
      </g>
      <g
         id="g3374"
         transform="matrix(0.35277777,0,0,-0.35277777,45.533081,152.09276)"
         clip-path="url(#clipPath5799)">
        <path
           d="m 0,0 c -0.479,-6.119 -5.702,-2.335 -7.172,-5.993 -2.69,-2.057 -4.703,-1.216 -15.628,-2.748 -9.423,-1.322 -11.183,2.168 -12.533,3.805 l -2.747,1.185 c 0.209,-6.01 2.873,-6.639 2.953,-18.002 0.036,-5.231 2.038,-10.733 3.057,-16.932 0.453,-2.753 2.838,-4.771 5.628,-4.758 3.246,0.015 11.066,-1.635 18.354,0.005 10.2,2.294 19.697,0.432 19.697,0.432 2.408,0 2.871,1.738 2.41,4.101 C 11.661,-26.827 7.4,-16.721 0,0"
           style="fill:#ff5b56;fill-opacity:1;fill-rule:nonzero;stroke:none"
           id="path3376" />
      </g>
      <g
         id="g3378"
         transform="matrix(0.35277777,0,0,-0.35277777,36.053907,155.88752)"
         clip-path="url(#clipPath5795)">
        <path
           d="m 0,0 c 14.396,4.157 26.296,-0.576 29.255,1.784 1.987,1.696 0.063,3.226 -1.037,6.324 -3.239,9.129 -9.249,15.09 -7.614,25.41 0.843,5.321 3.475,10.03 5.214,15.084 10e-4,-0.002 0.513,0.938 1.099,2.403 l -31.26,3.126 c -0.816,-6.625 -1,-14.53 -2.861,-24.248 C -8.802,21.54 -8.979,18.988 -10.322,13.868 -11.507,9.349 -11.637,6.892 -10.444,3.939 -9.803,2.352 -5.896,-1.703 0,0"
           style="fill:#ff5b56;fill-opacity:1;fill-rule:nonzero;stroke:none"
           id="path3380" />
      </g>
      <g
         id="g3382"
         transform="matrix(0.35277777,0,0,-0.35277777,51.126679,119.98482)"
         clip-path="url(#clipPath5791)">
        <path
           d="m 0,0 c -0.506,-0.134 -0.834,-0.629 -0.833,-1.152 0.001,-1.006 -0.018,-1.765 -0.14,-2.014 -0.494,-0.829 -1.175,-2.339 -1.021,-3.291 0.084,-0.515 0.18,-1.059 0.516,-1.458 0.402,-0.475 1.062,-0.645 1.537,-1.048 0.396,-0.335 0.651,-0.822 1.084,-1.108 0.432,-0.286 1.177,-0.211 1.283,0.297 l 1.281,1.266 c 0.674,1.711 0.613,1.802 1.041,2.888 0.173,0.438 0.567,0.759 0.752,1.192 0.184,0.434 0.226,0.964 -0.038,1.354 -0.42,0.623 -3.878,2.532 -4.026,2.606 C 1.327,-0.413 0.283,0.075 0,0"
           style="fill:#ff9084;fill-opacity:1;fill-rule:nonzero;stroke:none"
           id="path3384" />
      </g>
      <g
         id="g3386"
         transform="matrix(0.35277777,0,0,-0.35277777,33.302981,143.30929)"
         clip-path="url(#clipPath5787)">
        <path
           d="M 0,0 C 0.259,0.455 0.136,1.036 -0.238,1.402 -0.956,2.106 -1.483,2.651 -1.576,2.914 -1.82,3.846 -2.419,5.392 -3.207,5.949 -3.633,6.25 -4.087,6.563 -4.608,6.602 -5.229,6.649 -5.812,6.298 -6.433,6.242 -6.949,6.195 -7.476,6.354 -7.983,6.246 -8.49,6.138 -8.958,5.554 -8.671,5.123 l 0.005,-1.801 c 0.747,-1.68 0.855,-1.7 1.329,-2.768 0.191,-0.43 0.144,-0.936 0.324,-1.371 0.18,-0.436 0.528,-0.837 0.991,-0.923 0.739,-0.137 4.524,0.99 4.681,1.044 C -1.225,-0.657 -0.145,-0.255 0,0"
           style="fill:#ff9084;fill-opacity:1;fill-rule:nonzero;stroke:none"
           id="path3388" />
      </g>
      <g
         id="g3390"
         transform="matrix(0.35277777,0,0,-0.35277777,50.520724,134.35893)"
         clip-path="url(#clipPath5783)">
        <path
           d="m 0,0 c -1.296,7.041 -0.927,5.038 -1.986,10.787 -1.673,-0.05 -18.765,0.389 -22.387,0.282 l 0.377,-0.838 c -2.411,1.275 -5.114,2.036 -8.198,1.535 -1.533,-0.063 -25.614,-4.041 -25.614,-4.041 L -77.084,3.718 c -2.511,-0.609 -3.435,-3.697 -1.672,-5.585 2.196,-2.961 4.417,-5.681 6.618,-8.206 0.761,-0.873 2.019,-1.109 3.055,-0.591 l 4.707,2.353 c 0.756,0.378 0.971,1.365 0.43,2.016 -0.684,0.822 -1.345,1.641 -1.97,2.455 3.232,0.808 7.113,1.25 11.005,1.492 1.534,0.095 4.613,0.195 7.032,0.272 1.725,0.055 3.04,-1.476 2.781,-3.183 -0.092,-0.606 -0.176,-1.223 -0.254,-1.853 l 30.687442,-4.226225 C -13.889823,-9.9762246 -12.94,-7.052 -12.616,-5.084 c 0.348,2.109 2.026,3.745 4.152,3.975 C -5.634,-0.802 -2.392,-0.436 0,0"
           style="fill:#ff5b56;fill-opacity:1;fill-rule:nonzero;stroke:none"
           id="path3392"
           sodipodi:nodetypes="ccccccccscccccccccccc" />
      </g>
      <g
         id="g3394"
         transform="matrix(0.35277777,0,0,-0.35277777,51.803835,122.15902)"
         clip-path="url(#clipPath5779)">
        <path
           d="m 0,0 c -0.584,-0.73 -1.242,-1.387 -1.969,-1.965 1.218,-2.479 3.302,-6.818 5.156,-10.73 l 4.49,1.387 C 4.712,-6.572 1.464,-1.957 0,0"
           style="fill:#ff9084;fill-opacity:1;fill-rule:nonzero;stroke:none"
           id="path3396" />
      </g>
      <g
         id="g3398"
         transform="matrix(0.35277777,0,0,-0.35277777,55.214632,127.30633)"
         clip-path="url(#clipPath5775)">
        <path
           d="m 0,0 c -0.631,1.08 -1.304,2.185 -1.991,3.283 l -4.49,-1.387 c 0.598,-1.262 1.173,-2.48 1.687,-3.576 z"
           style="fill:#ffea9b;fill-opacity:1;fill-rule:nonzero;stroke:none"
           id="path3400" />
      </g>
      <g
         id="g3402"
         transform="matrix(0.35277777,0,0,-0.35277777,44.172946,120.35273)"
         clip-path="url(#clipPath5771)">
        <path
           d="m 0,0 c -0.23,0.613 -0.564,1.275 -1.052,2 -2.532,3.756 -4.285,3.625 -6.158,4.714 -1.839,1.069 -1.781,0.846 -4.241,1.619 -2.152,0.677 -4.573,0.329 -6.503,-0.828 0,0 -1.122,-0.771 -1.525,-1.181 -0.432,-0.441 -0.824,-0.92 -1.229,-1.387 -0.604,-0.228 -2.847,-1.238 -3.345,-2.728 -0.84,-2.519 -0.449,-3.913 -0.323,-4.255 0.324,1.1 0.85,2.116 1.547,3.001 0.148,0.581 0.476,1.086 0.924,1.461 -0.113,-0.251 -0.22,-0.508 -0.302,-0.753 -0.11,-0.33 -0.173,-0.632 -0.118,-0.838 0.183,-0.68 1.046,-0.699 1.618,-0.732 5.883,-0.345 9.338,-3.73 10.642,-5.683 1.076,-1.61 1.659,-3.52 2.774,-5.103 0.445,-0.634 1.482,-1.551 2.331,-2.223 -0.313,-0.43 -0.724,-0.747 -1.194,-0.911 l 0.019,-0.884 c 4.014,1.727 6.523,5.788 6.398,10.234 -0.013,0.449 -0.005,0.88 0.031,1.269 C 0.396,-2.125 0.382,-1.019 0,0"
           style="fill:#131055;fill-opacity:1;fill-rule:nonzero;stroke:none"
           id="path3404" />
      </g>
      <g
         id="g3406"
         transform="matrix(0.35277777,0,0,-0.35277777,36.44542,119.48172)"
         clip-path="url(#clipPath5767)">
        <path
           d="m 0,0 c -0.448,-0.375 -0.776,-0.88 -0.924,-1.461 0.195,0.247 0.403,0.482 0.622,0.708 C -0.22,-0.508 -0.113,-0.251 0,0"
           style="fill:#ffab88;fill-opacity:1;fill-rule:nonzero;stroke:none"
           id="path3408" />
      </g>
      <g
         id="g3410"
         transform="matrix(0.35277777,0,0,-0.35277777,37.599532,126.01965)"
         clip-path="url(#clipPath5763)">
        <path
           d="M 0,0 C 1.359,0.236 1.684,1.006 1.74,1.636 L -1.833,1.22 C -1.994,-0.271 0,0 0,0"
           style="fill:#ffffff;fill-opacity:1;fill-rule:nonzero;stroke:none"
           id="path3412" />
      </g>
      <g
         id="g3414"
         transform="matrix(0.35277777,0,0,-0.35277777,39.208904,122.42781)"
         clip-path="url(#clipPath5759)">
        <path
           d="M 0,0 C 0.319,0.002 0.579,0.265 0.577,0.584 0.575,0.903 0.312,1.163 -0.007,1.161 L -2.192,1.146 C -2.511,1.144 -2.771,0.881 -2.769,0.562 c 0.002,-0.319 0.266,-0.579 0.584,-0.576 z"
           style="fill:#131055;fill-opacity:1;fill-rule:nonzero;stroke:none"
           id="path3416" />
      </g>
      <g
         id="g3418"
         transform="matrix(0.35277777,0,0,-0.35277777,36.21495,122.03799)"
         clip-path="url(#clipPath5755)">
        <path
           d="m 0,0 -1.696,-0.011 c -0.248,-0.002 -0.45,-0.264 -0.447,-0.584 0.002,-0.319 0.206,-0.578 0.454,-0.577 l 1.696,0.011 c 0.248,0.002 0.45,0.264 0.447,0.583 C 0.452,-0.258 0.248,0.001 0,0"
           style="fill:#131055;fill-opacity:1;fill-rule:nonzero;stroke:none"
           id="path3420" />
      </g>
      <g
         id="g3422"
         transform="matrix(0.35277777,0,0,-0.35277777,37.596075,124.41285)"
         clip-path="url(#clipPath5751)">
        <path
           d="M 0,0 -0.021,0.11 C -0.199,-0.182 -0.503,-0.361 -0.84,-0.254 l -0.978,0.311 c -0.401,0.127 -0.657,0.52 -0.714,0.961 l -0.07,-0.194 c -0.234,-0.651 0.077,-1.394 0.663,-1.579 l 0.978,-0.311 C -0.398,-1.245 0.126,-0.664 0,0"
           style="fill:#fc5c4b;fill-opacity:1;fill-rule:nonzero;stroke:none"
           id="path3424" />
      </g>
      <g
         id="g3426"
         transform="matrix(0.35277777,0,0,-0.35277777,38.788781,123.31578)"
         clip-path="url(#clipPath5747)">
        <path
           d="m 0,0 c 0.36,0.002 0.65,0.454 0.646,1.008 -0.003,0.554 -0.299,1.002 -0.659,1 L -1.123,2 -0.579,1.463 C -0.626,1.323 -0.66,1.17 -0.659,1 -0.655,0.445 -0.36,-0.002 0,0"
           style="fill:#131055;fill-opacity:1;fill-rule:nonzero;stroke:none"
           id="path3428" />
      </g>
      <g
         id="g3430"
         transform="matrix(0.35277777,0,0,-0.35277777,36.016513,122.62554)"
         clip-path="url(#clipPath5743)">
        <path
           d="m 0,0 -1.11,-0.007 0.544,-0.537 c -0.047,-0.141 -0.081,-0.294 -0.08,-0.464 0.004,-0.555 0.299,-1.002 0.659,-1 C 0.374,-2.006 0.663,-1.554 0.659,-1 0.656,-0.445 0.36,0.002 0,0"
           style="fill:#131055;fill-opacity:1;fill-rule:nonzero;stroke:none"
           id="path3432" />
      </g>
      <g
         id="g3434"
         transform="matrix(0.35277777,0,0,-0.35277777,38.392612,122.62875)"
         clip-path="url(#clipPath5739)">
        <path
           d="M 0,0 1.11,0.007 C 1.47,0.01 1.766,-0.438 1.769,-0.992 1.773,-1.547 1.483,-1.998 1.123,-2 c -0.36,-0.003 -0.655,0.445 -0.659,0.999 -0.001,0.17 0.033,0.323 0.08,0.464 z m -0.455,1.079 c -0.002,0.319 0.258,0.582 0.577,0.584 L 2.307,1.677 C 2.625,1.679 2.889,1.42 2.891,1.101 2.893,0.782 2.633,0.519 2.314,0.517 L 0.129,0.502 C -0.189,0.5 -0.453,0.76 -0.455,1.079 M -2.248,-9.665 c 0,0 -1.994,-0.271 -1.833,1.22 l 3.573,0.416 c -0.056,-0.63 -0.381,-1.4 -1.74,-1.636 m -2.612,5.378 0.07,0.195 c 0.057,-0.441 0.313,-0.835 0.714,-0.962 l 0.978,-0.311 c 0.337,-0.107 0.641,0.073 0.819,0.365 l 0.021,-0.11 c 0.126,-0.664 -0.398,-1.245 -0.961,-1.066 l -0.978,0.31 c -0.586,0.186 -0.897,0.929 -0.663,1.579 M -6.166,0.461 -7.862,0.45 c -0.247,-0.002 -0.452,0.258 -0.454,0.577 -0.002,0.319 0.199,0.581 0.447,0.583 l 1.696,0.012 C -5.925,1.623 -5.721,1.363 -5.719,1.044 -5.716,0.725 -5.917,0.462 -6.166,0.461 m -0.556,-2.513 c -0.361,-0.002 -0.655,0.445 -0.659,1 -10e-4,0.17 0.032,0.323 0.08,0.464 l -0.545,0.537 1.111,0.007 c 0.36,0.002 0.655,-0.445 0.659,-1 0.004,-0.554 -0.286,-1.006 -0.646,-1.008 M 11.425,-6.464 C 10.577,-5.792 9.54,-4.875 9.094,-4.242 7.979,-2.659 7.396,-0.749 6.32,0.862 5.016,2.815 1.561,6.2 -4.321,6.545 c -0.573,0.033 -1.436,0.051 -1.618,0.732 -0.056,0.206 0.007,0.508 0.118,0.838 -0.22,-0.226 -0.428,-0.462 -0.623,-0.709 -0.697,-0.884 -1.223,-1.9 -1.547,-3 -0.238,-0.81 -0.376,-1.662 -0.366,-2.55 l 0.083,-7.207 c 0.056,-4.924 4.144,-8.906 9.085,-8.849 0.393,0.004 0.777,0.043 1.157,0.097 l 0.201,-9.495 8.221,-2.702 c 0.135,0.3 0.231,0.634 0.223,1.01 l -0.363,17.031 -0.019,0.884 c 0.471,0.164 0.881,0.481 1.194,0.911"
           style="fill:#ff9084;fill-opacity:1;fill-rule:nonzero;stroke:none"
           id="path3436" />
      </g>
      <g
         id="g3438"
         transform="matrix(0.35277777,0,0,-0.35277777,39.312268,132.85955)"
         clip-path="url(#clipPath5735)">
        <path
           d="m 0,0 h 6.197 c 2.049,0 3.726,1.677 3.726,3.726 0,2.049 -1.677,3.725 -3.726,3.725 L 0,7.451 C -2.049,7.451 -3.725,5.775 -3.725,3.726 -3.725,1.677 -2.049,0 0,0"
           style="fill:#ff9084;fill-opacity:1;fill-rule:nonzero;stroke:none"
           id="path3440" />
      </g>
      <g
         id="g3442"
         transform="matrix(0.35277777,0,0,-0.35277777,46.849083,190.53538)"
         clip-path="url(#clipPath5731)">
        <path
           d="m 0,0 -11.788,4.008 c -0.58,0.198 -1.291,-0.016 -1.412,-0.425 l -1.923,-6.498 c -0.111,-0.378 0.345,-0.732 0.952,-0.738 L -1.5,-3.789 C 1.829,-3.825 2.946,-1.002 0,0"
           style="fill:#e4e2fd;fill-opacity:1;fill-rule:nonzero;stroke:none"
           id="path3444" />
      </g>
      <g
         id="g3446"
         transform="matrix(0.35277777,0,0,-0.35277777,25.750468,191.05608)"
         clip-path="url(#clipPath5727)">
        <path
           d="m 0,0 -9.376,8.191 c -0.462,0.404 -1.201,0.477 -1.468,0.145 l -4.25,-5.278 C -15.342,2.75 -15.055,2.25 -14.495,2.013 L -2.83,-2.934 C 0.235,-4.233 2.343,-2.047 0,0"
           style="fill:#e4e2fd;fill-opacity:1;fill-rule:nonzero;stroke:none"
           id="path3448" />
      </g>
    </g>
  </g>
</svg>
